<?xml version="1.0" encoding="UTF-8" standalone="no"?>
<!-- Created with Inkscape (http://www.inkscape.org/) -->

<svg
   xmlns:dc="http://purl.org/dc/elements/1.1/"
   xmlns:cc="http://creativecommons.org/ns#"
   xmlns:rdf="http://www.w3.org/1999/02/22-rdf-syntax-ns#"
   xmlns:svg="http://www.w3.org/2000/svg"
   xmlns="http://www.w3.org/2000/svg"
   xmlns:sodipodi="http://sodipodi.sourceforge.net/DTD/sodipodi-0.dtd"
   xmlns:inkscape="http://www.inkscape.org/namespaces/inkscape"
   id="svg2985"
   version="1.1"
   inkscape:version="0.48.5 r10040"
   width="704.50171"
   height="629.44928"
   xml:space="preserve"
   sodipodi:docname="dec2014pie.pdf"><metadata
     id="metadata2991"><rdf:RDF><cc:Work
         rdf:about=""><dc:format>image/svg+xml</dc:format><dc:type
           rdf:resource="http://purl.org/dc/dcmitype/StillImage" /><dc:title></dc:title></cc:Work></rdf:RDF></metadata><defs
     id="defs2989"><clipPath
       clipPathUnits="userSpaceOnUse"
       id="clipPath2999"><path
         d="m 50.4,54 691.2,0 0,504 -691.2,0 0,-504 z"
         clip-rule="evenodd"
         id="path3001"
         inkscape:connector-curvature="0" /></clipPath><clipPath
       clipPathUnits="userSpaceOnUse"
       id="clipPath3025"><path
         d="m 50.4,62.16 683.04,0 0,495.84 -683.04,0 0,-495.84 z"
         clip-rule="evenodd"
         id="path3027"
         inkscape:connector-curvature="0" /></clipPath><clipPath
       clipPathUnits="userSpaceOnUse"
       id="clipPath3037"><path
         d="m 50.4,62.16 683.04,0 0,495.84 -683.04,0 0,-495.84 z"
         clip-rule="evenodd"
         id="path3039"
         inkscape:connector-curvature="0" /></clipPath><clipPath
       clipPathUnits="userSpaceOnUse"
       id="clipPath3049"><path
         d="m 50.4,62.16 683.04,0 0,495.84 -683.04,0 0,-495.84 z"
         clip-rule="evenodd"
         id="path3051"
         inkscape:connector-curvature="0" /></clipPath><clipPath
       clipPathUnits="userSpaceOnUse"
       id="clipPath3061"><path
         d="m 50.4,62.16 683.04,0 0,495.84 -683.04,0 0,-495.84 z"
         clip-rule="evenodd"
         id="path3063"
         inkscape:connector-curvature="0" /></clipPath><clipPath
       clipPathUnits="userSpaceOnUse"
       id="clipPath3077"><path
         d="m 50.4,62.16 683.04,0 0,495.84 -683.04,0 0,-495.84 z"
         clip-rule="evenodd"
         id="path3079"
         inkscape:connector-curvature="0" /></clipPath><clipPath
       clipPathUnits="userSpaceOnUse"
       id="clipPath3093"><path
         d="m 50.4,62.16 683.04,0 0,495.84 -683.04,0 0,-495.84 z"
         clip-rule="evenodd"
         id="path3095"
         inkscape:connector-curvature="0" /></clipPath><clipPath
       clipPathUnits="userSpaceOnUse"
       id="clipPath3109"><path
         d="m 50.4,62.16 683.04,0 0,495.84 -683.04,0 0,-495.84 z"
         clip-rule="evenodd"
         id="path3111"
         inkscape:connector-curvature="0" /></clipPath><clipPath
       clipPathUnits="userSpaceOnUse"
       id="clipPath3125"><path
         d="m 50.4,62.16 683.04,0 0,495.84 -683.04,0 0,-495.84 z"
         clip-rule="evenodd"
         id="path3127"
         inkscape:connector-curvature="0" /></clipPath><clipPath
       clipPathUnits="userSpaceOnUse"
       id="clipPath3137"><path
         d="m 50.4,54 691.2,0 0,504 -691.2,0 0,-504 z"
         clip-rule="evenodd"
         id="path3139"
         inkscape:connector-curvature="0" /></clipPath></defs><sodipodi:namedview
     pagecolor="#ffffff"
     bordercolor="#666666"
     borderopacity="1"
     objecttolerance="10"
     gridtolerance="10"
     guidetolerance="10"
     inkscape:pageopacity="0"
     inkscape:pageshadow="2"
     inkscape:window-width="1366"
     inkscape:window-height="716"
     id="namedview2987"
     showgrid="false"
     fit-margin-top="0"
     fit-margin-left="0"
     fit-margin-right="0"
     fit-margin-bottom="0"
     inkscape:zoom="0.70737049"
     inkscape:cx="353.58416"
     inkscape:cy="334.24092"
     inkscape:window-x="-8"
     inkscape:window-y="-8"
     inkscape:window-maximized="1"
     inkscape:current-layer="g2993" /><g
     id="g2993"
     inkscape:groupmode="layer"
     inkscape:label="dec2014pie"
     transform="matrix(1.25,0,0,-1.25,-141.41584,677.70833)"><g
       id="g2995"
       transform="matrix(0.82511253,0,0,1.015511,71.547002,-24.488477)"><g
         id="g2997"
         clip-path="url(#clipPath2999)"><path
           d="m 50.4,62.132 683.06,0 0,495.87 -683.06,0 0,-495.87 z"
           style="fill:#ffffff;fill-opacity:1;fill-rule:evenodd;stroke:none"
           id="path3003"
           inkscape:connector-curvature="0" /></g></g><path
       d="m 201.84,324.83 c -1.83,104.99 81.79,191.58 186.77,193.41 104.98,1.83 191.58,-81.79 193.41,-186.77 0.49,-27.98 -5.21,-55.73 -16.68,-81.25 l -86.71,38.96 c 21.52,47.89 0.15,104.16 -47.73,125.68 -47.89,21.52 -104.16,0.14 -125.68,-47.74 -5.73,-12.76 -8.58,-26.64 -8.34,-40.63 l -95.04,-1.66 z"
       style="fill:#5b9bd5;fill-opacity:1;fill-rule:evenodd;stroke:none"
       id="path3005"
       inkscape:connector-curvature="0" /><path
       d="m 201.84,324.83 c -1.83,104.99 81.79,191.58 186.77,193.41 104.98,1.83 191.58,-81.79 193.41,-186.77 0.49,-27.98 -5.21,-55.73 -16.68,-81.25 l -86.71,38.96 c 21.52,47.89 0.15,104.16 -47.73,125.68 -47.89,21.52 -104.16,0.14 -125.68,-47.74 -5.73,-12.76 -8.58,-26.64 -8.34,-40.63 l -95.04,-1.66 z"
       style="fill:none;stroke:#ffffff;stroke-width:1.55999994;stroke-linecap:butt;stroke-linejoin:round;stroke-miterlimit:10;stroke-opacity:1;stroke-dasharray:none"
       id="path3007"
       inkscape:connector-curvature="0" /><path
       d="M 565.34,250.22 C 535.15,183.04 468.88,139.35 395.25,138.06 l -1.66,95.05 c 36.82,0.64 69.95,22.49 85.04,56.07 l 86.71,-38.96 z"
       style="fill:#ed7d31;fill-opacity:1;fill-rule:evenodd;stroke:none"
       id="path3009"
       inkscape:connector-curvature="0" /><path
       d="M 565.34,250.22 C 535.15,183.04 468.88,139.35 395.25,138.06 l -1.66,95.05 c 36.82,0.64 69.95,22.49 85.04,56.07 l 86.71,-38.96 z"
       style="fill:none;stroke:#ffffff;stroke-width:1.55999994;stroke-linecap:butt;stroke-linejoin:round;stroke-miterlimit:10;stroke-opacity:1;stroke-dasharray:none"
       id="path3011"
       inkscape:connector-curvature="0" /><path
       d="m 395.25,138.06 c -69.34,-1.21 -133.83,35.43 -168.3,95.61 l 82.49,47.24 c 17.23,-30.09 49.48,-48.41 84.15,-47.8 l 1.66,-95.05 z"
       style="fill:#a5a5a5;fill-opacity:1;fill-rule:evenodd;stroke:none"
       id="path3013"
       inkscape:connector-curvature="0" /><path
       d="m 395.25,138.06 c -69.34,-1.21 -133.83,35.43 -168.3,95.61 l 82.49,47.24 c 17.23,-30.09 49.48,-48.41 84.15,-47.8 l 1.66,-95.05 z"
       style="fill:none;stroke:#ffffff;stroke-width:1.55999994;stroke-linecap:butt;stroke-linejoin:round;stroke-miterlimit:10;stroke-opacity:1;stroke-dasharray:none"
       id="path3015"
       inkscape:connector-curvature="0" /><path
       d="m 226.95,233.67 c -15.91,27.79 -24.55,59.15 -25.11,91.16 l 95.04,1.66 c 0.28,-16.01 4.6,-31.69 12.56,-45.58 l -82.49,-47.24 z"
       style="fill:#ffc000;fill-opacity:1;fill-rule:evenodd;stroke:none"
       id="path3017"
       inkscape:connector-curvature="0" /><path
       d="m 226.95,233.67 c -15.91,27.79 -24.55,59.15 -25.11,91.16 l 95.04,1.66 c 0.28,-16.01 4.6,-31.69 12.56,-45.58 l -82.49,-47.24 z"
       style="fill:none;stroke:#ffffff;stroke-width:1.55999994;stroke-linecap:butt;stroke-linejoin:round;stroke-miterlimit:10;stroke-opacity:1;stroke-dasharray:none"
       id="path3019"
       inkscape:connector-curvature="0" /><g
       id="g3021"><g
         id="g3023"
         clip-path="url(#clipPath3025)"><text
           transform="matrix(1,0,0,-1,403.1,460.94)"
           id="text3029"><tspan
             style="font-size:20.06399918px;font-variant:normal;font-weight:bold;writing-mode:lr-tb;fill:#ffffff;fill-opacity:1;fill-rule:nonzero;stroke:none;font-family:Calibri;-inkscape-font-specification:Calibri Bold"
             x="0 10.200048 20.400097"
             y="0"
             sodipodi:role="line"
             id="tspan3031">57%</tspan></text>
</g></g><g
       id="g3033"><g
         id="g3035"
         clip-path="url(#clipPath3037)"><text
           transform="matrix(1,0,0,-1,452.95,202.15)"
           id="text3041"><tspan
             style="font-size:20.04000092px;font-variant:normal;font-weight:bold;writing-mode:lr-tb;fill:#ffffff;fill-opacity:1;fill-rule:nonzero;stroke:none;font-family:Calibri;-inkscape-font-specification:Calibri Bold"
             x="0 10.19998 20.39996"
             y="0"
             sodipodi:role="line"
             id="tspan3043">18%</tspan></text>
</g></g><g
       id="g3045"><g
         id="g3047"
         clip-path="url(#clipPath3049)"><text
           transform="matrix(1,0,0,-1,303.98,197.21)"
           id="text3053"><tspan
             style="font-size:20.04000092px;font-variant:normal;font-weight:bold;writing-mode:lr-tb;fill:#ffffff;fill-opacity:1;fill-rule:nonzero;stroke:none;font-family:Calibri;-inkscape-font-specification:Calibri Bold"
             x="0 10.22398 20.44796"
             y="0"
             sodipodi:role="line"
             id="tspan3055">17%</tspan></text>
</g></g><g
       id="g3057"><g
         id="g3059"
         clip-path="url(#clipPath3061)"><text
           transform="matrix(1,0,0,-1,241.99,283.34)"
           id="text3065"><tspan
             style="font-size:20.04000092px;font-variant:normal;font-weight:bold;writing-mode:lr-tb;fill:#ffffff;fill-opacity:1;fill-rule:nonzero;stroke:none;font-family:Calibri;-inkscape-font-specification:Calibri Bold"
             x="0 10.19998"
             y="0"
             sodipodi:role="line"
             id="tspan3067">8%</tspan></text>
</g></g><path
       d="m 139.42,77.724 10.987,0 0,10.987 -10.987,0 0,-10.987 z"
       style="fill:#5b9bd5;fill-opacity:1;fill-rule:evenodd;stroke:none"
       id="path3069"
       inkscape:connector-curvature="0" /><path
       d="m 139.42,77.724 10.987,0 0,10.987 -10.987,0 0,-10.987 z"
       style="fill:none;stroke:#ffffff;stroke-width:1.5;stroke-linecap:butt;stroke-linejoin:round;stroke-miterlimit:10;stroke-opacity:1;stroke-dasharray:none"
       id="path3071"
       inkscape:connector-curvature="0" /><g
       id="g3073"><g
         id="g3075"
         clip-path="url(#clipPath3077)"><text
           transform="matrix(1,0,0,-1,155.54,77.328)"
           id="text3081"><tspan
             style="font-size:20.04000092px;font-variant:normal;font-weight:normal;writing-mode:lr-tb;fill:#595959;fill-opacity:1;fill-rule:nonzero;stroke:none;font-family:Calibri;-inkscape-font-specification:Calibri"
             x="0 10.08012 14.60916 28.937759 38.536919 45.25032 53.647079 64.168083 74.148003"
             y="0"
             sodipodi:role="line"
             id="tspan3083">1 watcher</tspan></text>
</g></g><path
       d="m 261,77.724 10.987,0 0,10.987 -10.987,0 0,-10.987 z"
       style="fill:#ed7d31;fill-opacity:1;fill-rule:evenodd;stroke:none"
       id="path3085"
       inkscape:connector-curvature="0" /><path
       d="m 261,77.724 10.987,0 0,10.987 -10.987,0 0,-10.987 z"
       style="fill:none;stroke:#ffffff;stroke-width:1.5;stroke-linecap:butt;stroke-linejoin:round;stroke-miterlimit:10;stroke-opacity:1;stroke-dasharray:none"
       id="path3087"
       inkscape:connector-curvature="0" /><g
       id="g3089"><g
         id="g3091"
         clip-path="url(#clipPath3093)"><text
           transform="matrix(1,0,0,-1,277.13,77.328)"
           id="text3097"><tspan
             style="font-size:20.04000092px;font-variant:normal;font-weight:normal;writing-mode:lr-tb;fill:#595959;fill-opacity:1;fill-rule:nonzero;stroke:none;font-family:Calibri;-inkscape-font-specification:Calibri"
             x="0 10.16028 14.68932 29.01792 38.617081 45.330479 53.707199 64.26828 74.248199 81.242157"
             y="0"
             sodipodi:role="line"
             id="tspan3099">2 watchers</tspan></text>
</g></g><path
       d="m 390.39,77.724 10.987,0 0,10.987 -10.987,0 0,-10.987 z"
       style="fill:#a5a5a5;fill-opacity:1;fill-rule:evenodd;stroke:none"
       id="path3101"
       inkscape:connector-curvature="0" /><path
       d="m 390.39,77.724 10.987,0 0,10.987 -10.987,0 0,-10.987 z"
       style="fill:none;stroke:#ffffff;stroke-width:1.5;stroke-linecap:butt;stroke-linejoin:round;stroke-miterlimit:10;stroke-opacity:1;stroke-dasharray:none"
       id="path3103"
       inkscape:connector-curvature="0" /><g
       id="g3105"><g
         id="g3107"
         clip-path="url(#clipPath3109)"><text
           transform="matrix(1,0,0,-1,406.56,77.328)"
           id="text3113"><tspan
             style="font-size:20.04000092px;font-variant:normal;font-weight:normal;writing-mode:lr-tb;fill:#595959;fill-opacity:1;fill-rule:nonzero;stroke:none;font-family:Calibri;-inkscape-font-specification:Calibri"
             x="0 10.08012 16.292521 26.372641 30.90168 45.230282 54.829441 61.4226 69.899521 80.420517 90.400436 97.394402"
             y="0"
             sodipodi:role="line"
             id="tspan3115">3-5 watchers</tspan></text>
</g></g><path
       d="m 536.05,77.724 10.987,0 0,10.987 -10.987,0 0,-10.987 z"
       style="fill:#ffc000;fill-opacity:1;fill-rule:evenodd;stroke:none"
       id="path3117"
       inkscape:connector-curvature="0" /><path
       d="m 536.05,77.724 10.987,0 0,10.987 -10.987,0 0,-10.987 z"
       style="fill:none;stroke:#ffffff;stroke-width:1.5;stroke-linecap:butt;stroke-linejoin:round;stroke-miterlimit:10;stroke-opacity:1;stroke-dasharray:none"
       id="path3119"
       inkscape:connector-curvature="0" /><g
       id="g3121"><g
         id="g3123"
         clip-path="url(#clipPath3125)"><text
           transform="matrix(1,0,0,-1,552.24,77.328)"
           id="text3129"><tspan
             style="font-size:20.04000092px;font-variant:normal;font-weight:normal;writing-mode:lr-tb;fill:#595959;fill-opacity:1;fill-rule:nonzero;stroke:none;font-family:Calibri;-inkscape-font-specification:Calibri"
             x="0 10.08012 20.06004 24.589081 38.917679 48.516842 55.23024 63.60696 74.12796 84.10788 91.101837"
             y="0"
             sodipodi:role="line"
             id="tspan3131">6+ watchers</tspan></text>
</g></g></g></svg>