<?xml version="1.0" encoding="UTF-8" standalone="no"?>
<!-- Created with Inkscape (http://www.inkscape.org/) -->

<svg
   xmlns:dc="http://purl.org/dc/elements/1.1/"
   xmlns:cc="http://creativecommons.org/ns#"
   xmlns:rdf="http://www.w3.org/1999/02/22-rdf-syntax-ns#"
   xmlns:svg="http://www.w3.org/2000/svg"
   xmlns="http://www.w3.org/2000/svg"
   xmlns:sodipodi="http://sodipodi.sourceforge.net/DTD/sodipodi-0.dtd"
   xmlns:inkscape="http://www.inkscape.org/namespaces/inkscape"
   id="svg4815"
   version="1.1"
   inkscape:version="0.48.5 r10040"
   width="853.09375"
   height="618.7146"
   xml:space="preserve"
   sodipodi:docname="watchersWithTime.svg"><metadata
     id="metadata4821"><rdf:RDF><cc:Work
         rdf:about=""><dc:format>image/svg+xml</dc:format><dc:type
           rdf:resource="http://purl.org/dc/dcmitype/StillImage" /><dc:title></dc:title></cc:Work></rdf:RDF></metadata><defs
     id="defs4819"><clipPath
       clipPathUnits="userSpaceOnUse"
       id="clipPath4829"><path
         d="m 50.4,54 691.2,0 0,504 -691.2,0 0,-504 z"
         clip-rule="evenodd"
         id="path4831"
         inkscape:connector-curvature="0" /></clipPath><clipPath
       clipPathUnits="userSpaceOnUse"
       id="clipPath4853"><path
         d="m 50.4,63.48 682.08,0 0,494.52 -682.08,0 0,-494.52 z"
         clip-rule="evenodd"
         id="path4855"
         inkscape:connector-curvature="0" /></clipPath><clipPath
       clipPathUnits="userSpaceOnUse"
       id="clipPath4865"><path
         d="m 50.4,63.48 682.08,0 0,494.52 -682.08,0 0,-494.52 z"
         clip-rule="evenodd"
         id="path4867"
         inkscape:connector-curvature="0" /></clipPath><clipPath
       clipPathUnits="userSpaceOnUse"
       id="clipPath4877"><path
         d="m 50.4,63.48 682.08,0 0,494.52 -682.08,0 0,-494.52 z"
         clip-rule="evenodd"
         id="path4879"
         inkscape:connector-curvature="0" /></clipPath><clipPath
       clipPathUnits="userSpaceOnUse"
       id="clipPath4889"><path
         d="m 50.4,63.48 682.08,0 0,494.52 -682.08,0 0,-494.52 z"
         clip-rule="evenodd"
         id="path4891"
         inkscape:connector-curvature="0" /></clipPath><clipPath
       clipPathUnits="userSpaceOnUse"
       id="clipPath4901"><path
         d="m 50.4,63.48 682.08,0 0,494.52 -682.08,0 0,-494.52 z"
         clip-rule="evenodd"
         id="path4903"
         inkscape:connector-curvature="0" /></clipPath><clipPath
       clipPathUnits="userSpaceOnUse"
       id="clipPath4913"><path
         d="m 50.4,63.48 682.08,0 0,494.52 -682.08,0 0,-494.52 z"
         clip-rule="evenodd"
         id="path4915"
         inkscape:connector-curvature="0" /></clipPath><clipPath
       clipPathUnits="userSpaceOnUse"
       id="clipPath4925"><path
         d="m 50.4,63.48 682.08,0 0,494.52 -682.08,0 0,-494.52 z"
         clip-rule="evenodd"
         id="path4927"
         inkscape:connector-curvature="0" /></clipPath><clipPath
       clipPathUnits="userSpaceOnUse"
       id="clipPath4937"><path
         d="m 50.4,63.48 682.08,0 0,494.52 -682.08,0 0,-494.52 z"
         clip-rule="evenodd"
         id="path4939"
         inkscape:connector-curvature="0" /></clipPath><clipPath
       clipPathUnits="userSpaceOnUse"
       id="clipPath4949"><path
         d="m 50.4,63.48 682.08,0 0,494.52 -682.08,0 0,-494.52 z"
         clip-rule="evenodd"
         id="path4951"
         inkscape:connector-curvature="0" /></clipPath><clipPath
       clipPathUnits="userSpaceOnUse"
       id="clipPath4961"><path
         d="m 50.4,63.48 682.08,0 0,494.52 -682.08,0 0,-494.52 z"
         clip-rule="evenodd"
         id="path4963"
         inkscape:connector-curvature="0" /></clipPath><clipPath
       clipPathUnits="userSpaceOnUse"
       id="clipPath4973"><path
         d="m 50.4,63.48 682.08,0 0,494.52 -682.08,0 0,-494.52 z"
         clip-rule="evenodd"
         id="path4975"
         inkscape:connector-curvature="0" /></clipPath><clipPath
       clipPathUnits="userSpaceOnUse"
       id="clipPath4985"><path
         d="m 50.4,63.48 682.08,0 0,494.52 -682.08,0 0,-494.52 z"
         clip-rule="evenodd"
         id="path4987"
         inkscape:connector-curvature="0" /></clipPath><clipPath
       clipPathUnits="userSpaceOnUse"
       id="clipPath4997"><path
         d="m 50.4,63.48 682.08,0 0,494.52 -682.08,0 0,-494.52 z"
         clip-rule="evenodd"
         id="path4999"
         inkscape:connector-curvature="0" /></clipPath><clipPath
       clipPathUnits="userSpaceOnUse"
       id="clipPath5009"><path
         d="m 50.4,63.48 682.08,0 0,494.52 -682.08,0 0,-494.52 z"
         clip-rule="evenodd"
         id="path5011"
         inkscape:connector-curvature="0" /></clipPath><clipPath
       clipPathUnits="userSpaceOnUse"
       id="clipPath5021"><path
         d="m 50.4,63.48 682.08,0 0,494.52 -682.08,0 0,-494.52 z"
         clip-rule="evenodd"
         id="path5023"
         inkscape:connector-curvature="0" /></clipPath><clipPath
       clipPathUnits="userSpaceOnUse"
       id="clipPath5033"><path
         d="m 50.4,63.48 682.08,0 0,494.52 -682.08,0 0,-494.52 z"
         clip-rule="evenodd"
         id="path5035"
         inkscape:connector-curvature="0" /></clipPath><clipPath
       clipPathUnits="userSpaceOnUse"
       id="clipPath5045"><path
         d="m 50.4,63.48 682.08,0 0,494.52 -682.08,0 0,-494.52 z"
         clip-rule="evenodd"
         id="path5047"
         inkscape:connector-curvature="0" /></clipPath><clipPath
       clipPathUnits="userSpaceOnUse"
       id="clipPath5057"><path
         d="m 50.4,54 691.2,0 0,504 -691.2,0 0,-504 z"
         clip-rule="evenodd"
         id="path5059"
         inkscape:connector-curvature="0" /></clipPath><clipPath
       clipPathUnits="userSpaceOnUse"
       id="clipPath5069"><path
         d="m 50.4,432.12 682.2,0 0,30.84 -682.2,0 0,-30.84 z"
         clip-rule="evenodd"
         id="path5071"
         inkscape:connector-curvature="0" /></clipPath><clipPath
       clipPathUnits="userSpaceOnUse"
       id="clipPath5083"><path
         d="m 50.4,63.36 682.2,0 0,494.64 -682.2,0 0,-494.64 z"
         clip-rule="evenodd"
         id="path5085"
         inkscape:connector-curvature="0" /></clipPath><clipPath
       clipPathUnits="userSpaceOnUse"
       id="clipPath5097"><path
         d="m 50.4,63.36 682.2,0 0,494.64 -682.2,0 0,-494.64 z"
         clip-rule="evenodd"
         id="path5099"
         inkscape:connector-curvature="0" /></clipPath><clipPath
       clipPathUnits="userSpaceOnUse"
       id="clipPath5109"><path
         d="m 50.4,63.36 682.2,0 0,494.64 -682.2,0 0,-494.64 z"
         clip-rule="evenodd"
         id="path5111"
         inkscape:connector-curvature="0" /></clipPath><clipPath
       clipPathUnits="userSpaceOnUse"
       id="clipPath5121"><path
         d="m 50.4,63.36 682.2,0 0,494.64 -682.2,0 0,-494.64 z"
         clip-rule="evenodd"
         id="path5123"
         inkscape:connector-curvature="0" /></clipPath><clipPath
       clipPathUnits="userSpaceOnUse"
       id="clipPath5135"><path
         d="m 50.4,63.36 682.2,0 0,494.64 -682.2,0 0,-494.64 z"
         clip-rule="evenodd"
         id="path5137"
         inkscape:connector-curvature="0" /></clipPath><clipPath
       clipPathUnits="userSpaceOnUse"
       id="clipPath5153"><path
         d="m 50.4,63.36 682.2,0 0,494.64 -682.2,0 0,-494.64 z"
         clip-rule="evenodd"
         id="path5155"
         inkscape:connector-curvature="0" /></clipPath><clipPath
       clipPathUnits="userSpaceOnUse"
       id="clipPath5165"><path
         d="m 50.4,489.72 682.2,0 0,61.56 -682.2,0 0,-61.56 z"
         clip-rule="evenodd"
         id="path5167"
         inkscape:connector-curvature="0" /></clipPath></defs><sodipodi:namedview
     pagecolor="#ffffff"
     bordercolor="#666666"
     borderopacity="1"
     objecttolerance="10"
     gridtolerance="10"
     guidetolerance="10"
     inkscape:pageopacity="0"
     inkscape:pageshadow="2"
     inkscape:window-width="1366"
     inkscape:window-height="716"
     id="namedview4817"
     showgrid="false"
     inkscape:zoom="0.81454783"
     inkscape:cx="432"
     inkscape:cy="303.71461"
     inkscape:window-x="-8"
     inkscape:window-y="-8"
     inkscape:window-maximized="1"
     inkscape:current-layer="g4823"
     fit-margin-top="0"
     fit-margin-left="0"
     fit-margin-right="0"
     fit-margin-bottom="0" /><g
     id="g4823"
     inkscape:groupmode="layer"
     inkscape:label="lineChartAttempt2"
     transform="matrix(1.25,0,0,-1.25,-63,697.5)"><g
       id="g4825"><g
         id="g4827"
         clip-path="url(#clipPath4829)"><path
           d="m 50.4,63.406 682.09,0 0,494.59 -682.09,0 0,-494.59 z"
           style="fill:#ffffff;fill-opacity:1;fill-rule:evenodd;stroke:none"
           id="path4833"
           inkscape:connector-curvature="0" /></g></g><path
       d="m 110.02,168.96 611.47,0 M 110.02,231 l 611.47,0 m -611.47,61.92 611.47,0 m -611.47,61.92 611.47,0 m -611.47,62.04 611.47,0 m -611.47,61.92 611.47,0 m -611.47,61.99 611.47,0"
       style="fill:none;stroke:#d9d9d9;stroke-width:0.75;stroke-linecap:butt;stroke-linejoin:round;stroke-miterlimit:10;stroke-opacity:1;stroke-dasharray:none"
       id="path4835"
       inkscape:connector-curvature="0" /><path
       d="m 110.02,107.02 611.47,0"
       style="fill:none;stroke:#d9d9d9;stroke-width:0.75;stroke-linecap:butt;stroke-linejoin:round;stroke-miterlimit:10;stroke-opacity:1;stroke-dasharray:none"
       id="path4837"
       inkscape:connector-curvature="0" /><path
       d="m 110.02,107.02 0,-6.35 m 69.38,6.35 0,-6.35 m 69.48,6.35 0,-6.35 m 67.2,6.35 0,-6.35 m 69.48,6.35 0,-6.35 m 67.2,6.35 0,-6.35 m 69.36,6.35 0,-6.35 m 69.48,6.35 0,-6.35 m 62.7,6.35 0,-6.35"
       style="fill:none;stroke:#d9d9d9;stroke-width:0.75;stroke-linecap:butt;stroke-linejoin:round;stroke-miterlimit:10;stroke-opacity:1;stroke-dasharray:none"
       id="path4839"
       inkscape:connector-curvature="0" /><path
       d="m 111.14,487.32 2.26,0.46 2.28,0 0,-0.1 0,-0.12 0,0 0,0.24 0,-0.24 0,0 0,-0.24 2.16,0 0,-0.24 0,0.12 2.28,0 4.44,0.12 0,-0.36 0,0.12 4.44,-0.12 4.56,-1.68 6.72,-0.72 4.44,-0.84 13.44,0.12 0,-0.12 0,-0.12 2.28,-0.36 0,-0.12 0,-0.6 0,0 2.16,0 0,-0.6 0,-0.12 0,0.12 0,-0.36 0,0 0,0.12 2.28,0.24 0,0 0,0.12 0,0 0,-0.12 6.72,0 0,0.12 0,0 0,-0.12 0,0 2.28,0.36 0,0.12 0,-0.12 0,0.12 0,0 2.16,0.12 0,0.12 0,0 0,-0.12 0,0.12 2.28,0 0,0 0,0 2.28,-0.12 0,0.24 0,-0.24 0,-0.12 0,-2.16 6.72,-0.36 0,0 0,-0.12 0,0.48 0,-1.56 2.16,0 0,-0.36 0,0.24 0,-0.24 0,0.24 2.28,0 0,-0.12 0,0 0,-0.36 0,-2.52 4.44,-1.08 0,-0.12 0,-0.36 9,-1.8 2.28,-1.92 0,-1.2 0,0.24 2.16,0 2.28,-0.12 0,-0.12 6.72,0.12 0,-0.12 2.28,0.12 0,0.24 2.16,0 0,0 2.28,0.24 0,-0.24 2.28,0 0,-0.72 6.72,-0.36 0,-0.24 0,-0.12 2.16,-0.24 0,0 0,-0.12 0,0.12 2.28,0 0,0.24 0,0.72 2.28,0.84 0,-0.12 0,-0.12 2.16,0.12 0,-0.24 0,0.36 6.72,0 0,0 6.72,0.12 24.72,-0.36 2.16,0.24 0,0.12 6.72,-0.96 0,-1.08 0,-0.12 4.56,-0.12 6.72,-0.48 4.44,0.24 6.72,0 0,-0.24 0,-0.12 4.44,0.6 0,0.12 4.56,-0.36 6.72,0 2.16,-0.48 22.44,-0.36 0,-0.36 9,-0.48 4.44,-0.48 2.28,-0.72 0,-0.24 6.72,0.12 0,-2.88 2.16,-0.24 2.28,-0.6 11.16,-0.48 4.56,0.12 13.44,0 0,0 2.16,0.12 4.56,0.24 6.72,0 8.88,0.12 0,-0.12 0,-0.12 6.72,0 0,0 0,0.24 2.28,0.12 0,-0.24 29.16,-0.36 17.88,0.24 0,-0.12 2.28,-0.36 2.16,0.6 0,-0.12 0,-0.24 2.28,-0.12 2.28,-1.92 4.44,-0.36 0,-0.12 0,-0.36 0,-3.12 0,-1.08 0,-0.72 2.28,0 0,-2.16 2.16,-0.36 0,-1.56 2.28,-0.48 0,-0.24 0,0.12 0,-0.72 2.28,0 0,0.12 0,-0.84 8.88,-2.28 2.28,-9 2.28,-3.12 2.16,-1.56 0,-5.64 6.72,-3.48 0,-2.4 2.28,-4.8 0,-1.2 0,-9 2.28,-0.84 0,0.12 2.16,-0.24 0,-0.36 0,-6.48 0,-2.52 2.28,0 0,-2.88 0,-0.72 6.72,-0.36 0,-0.36 2.28,0 0,-0.24 2.16,-10.8 4.56,-101.4 6.72,-7.56 2.16,-1.56 0,-0.24 2.28,-1.68 0,-4.68 2.28,-2.76 0,-1.32 2.16,-0.24 0,-2.16 9,-0.96 0,-0.72 2.28,0.24 2.16,-0.24 2.28,0.12 4.44,-0.12 2.28,0.24 0,0 2.28,0.12 2.16,0.12 2.28,-0.12 6.72,-0.72 2.28,-1.92 2.16,-2.28 0,0.12 2.28,0.24 0,-0.12 4.44,0 0,-0.24 0,-0.36 0,0.12 6.72,0 0,0.24 4.56,-0.48 2.16,0.36 2.28,-0.96 0,-2.28 9,-1.08 2.16,0 2.28,0 11.16,0.36 2.28,0 0,0.12 2.16,0.36 0,0.12 2.28,-0.36 0,-0.36 6.72,-6.6 0,0.24 0,0.12 2.28,0.12 0,-2.64 0,-1.2 2.16,0 0,-0.84 0,0 2.28,-2.28 0,-0.24 0,-2.28 0,0 2.28,-0.36 0,-1.2 0,-0.36 6.72,-1.2 0,-0.24 2.16,0 0,0.24 0,0.24 0,-0.12 0,-0.12 2.28,-0.12 0,-0.12 2.28,0.24 0,-0.24 0,0.24 2.16,-0.36 6.72,-0.24 0,0.12 0,-0.36 0,-64.68 2.28,0 0,-0.36 0,-1.8 0,-1.32 2.28,-0.72 0,-0.72 2.16,0.6 2.28,0 0,0 0,0.24 0,-0.12 6.73,0 0,0.12"
       style="fill:none;stroke:#5b9bd5;stroke-width:2.25;stroke-linecap:round;stroke-linejoin:round;stroke-miterlimit:10;stroke-opacity:1;stroke-dasharray:none"
       id="path4841"
       inkscape:connector-curvature="0" /><path
       d="m 111.14,214.08 2.26,-0.52 2.28,0 0,0.16 0,0.12 0,0 0,-0.12 0,0.36 0,-0.12 2.16,0 0,-0.12 2.28,0 4.44,-0.12 0,-0.12 4.44,0.12 4.56,0.48 6.72,0.12 4.44,0.36 13.44,0 0,0.12 2.28,-0.36 0,0.12 0,0.12 0,0.12 2.16,0 0,0.6 0,0.12 0,0 0,0.36 0,0.12 0,-0.48 2.28,0 0,-0.12 0,0 0,0 0,0.12 6.72,0 0,-0.12 0,0 0,0.12 0,0 2.28,-0.24 0,0 0,0.12 0,0 0,-0.24 2.16,0 0,-0.24 0,-0.12 0,0.12 0,0 2.28,0 0,0 0,0 2.28,0.24 0,-0.24 0,0.12 0,2.16 6.72,0.48 0,0.12 0,0.12 0,-0.24 0,0.48 2.16,0 0,0.36 0,-0.24 0,0 0,-0.24 0,0 2.28,-0.12 0,0.12 0,0 0,0.12 0,1.2 4.44,0.72 0,0.12 0,0.12 9,1.44 2.28,1.2 0,-3.24 0,0 2.16,0.12 2.28,-0.24 6.72,-0.48 0,-0.24 2.28,0 0,-0.12 2.16,-0.36 0,0 2.28,-0.24 0,0.12 2.28,0.12 0,0.36 6.72,0.36 0,0 0,0.12 2.16,0.36 0,0 0,0.24 0,-0.12 2.28,0 0,-0.12 0,-0.12 2.28,-0.24 0,-0.12 0,0.24 2.16,0 0,0.12 0,-0.36 6.72,0 0,-0.12 0,-0.12 6.72,-0.48 24.72,0.36 2.16,-0.24 0,-0.36 6.72,1.08 0,0.96 0,0.12 4.56,0.12 6.72,0.48 4.44,-0.12 6.72,0.12 0,0 0,0.12 4.44,-0.24 0,0 4.56,0.24 6.72,0.12 2.16,0.24 22.44,-0.6 0,0.48 9,0 4.44,-0.84 2.28,0.24 0,0.12 6.72,0 0,0.96 2.16,0 2.28,0.36 11.16,-0.12 4.56,-0.12 13.44,-0.24 0,0 2.16,-0.24 4.56,-0.24 6.72,-0.24 8.88,0.12 0,-0.24 0,0 6.72,0 0,0 0,-0.12 2.28,-0.12 0,0.12 29.16,0.6 0,-0.12 17.88,0.24 0,0 2.28,0.36 2.16,0.12 0,0 0,0.24 2.28,0.12 2.28,1.68 4.44,0.48 0,0 0,0.48 0,2.88 0,1.08 0,0.6 2.28,0 0,1.44 2.16,0.48 0,1.2 2.28,0.36 0,-0.36 0,-0.12 0,0.6 2.28,0 0,-0.12 0,0.72 8.88,1.92 2.28,8.4 2.28,0.96 2.16,0.84 0,5.04 6.72,2.76 0,2.28 2.28,4.8 0,1.32 0,8.52 2.28,0.6 0,0 2.16,0.24 0,0.24 0,5.88 0,2.52 2.28,-0.72 0,2.88 0,0.6 6.72,-0.12 0,-0.12 0,0.24 0,-0.36 2.28,-1.32 0,0.12 2.16,10.44 4.56,99.6 6.72,5.4 2.16,1.56 0,-0.12 2.28,1.2 0,4.44 2.28,1.68 0,0.48 2.16,0 0,2.28 9,0.12 0,-0.24 2.28,-0.24 2.16,-0.24 2.28,-0.12 4.44,-0.36 2.28,-0.12 0,0 2.28,-0.12 2.16,-0.12 2.28,0.12 6.72,0.24 2.28,1.68 2.16,2.04 0,-0.48 2.28,-0.12 0,0.24 4.44,-1.08 0,-0.84 0,-0.24 0,-0.12 6.72,0 0,-0.24 4.56,-0.72 2.16,-0.24 2.28,0.84 0,0.12 9,0.84 2.16,-0.12 0,-0.12 2.28,0 11.16,-0.24 2.28,0.24 0,-0.6 2.16,-0.36 0,-0.24 2.28,0.12 0,-2.28 6.72,7.32 0,-3.36 0,-0.12 2.28,-0.24 0,2.16 0,0.96 2.16,0 0,0.96 0,-0.72 2.28,-1.44 0,0.24 0,-1.32 0,-0.12 0,-1.32 2.28,0.24 0,1.2 0,0.36 6.72,0.96 0,-0.12 2.16,0 0,-0.36 0,-0.24 0,0.12 0,0.12 2.28,-0.24 0,-6.36 2.28,-0.48 0,0.12 0,-0.6 2.16,-0.36 0,-0.12 6.72,0.12 0,-0.12 0,0.48 0,64.56 2.28,0 0,0.24 0,1.8 0,-1.08 2.28,0.48 0,0.65 2.16,-0.29 2.28,-1.08 0,0 0,-0.24 0,-0.12 6.73,0 0,-0.72"
       style="fill:none;stroke:#ed7d31;stroke-width:2.25;stroke-linecap:round;stroke-linejoin:round;stroke-miterlimit:10;stroke-opacity:1;stroke-dasharray:none"
       id="path4843"
       inkscape:connector-curvature="0" /><path
       d="m 111.14,195.48 2.26,0.24 2.28,0 0,-0.12 0,0 0,0 0,0 0,-0.23 0,0.35 2.16,0 0,0.12 0,0 2.28,0 4.44,0.24 0,0.24 0,0 4.44,-0.12 4.56,0.72 6.72,0.6 4.44,0.36 13.44,0.24 0,-0.24 0,0.24 0,-0.24 2.28,0.48 0,0 0,0.6 0,0 2.16,0 0,-0.12 0,0 0,0 0,-0.12 0,0.36 2.28,0 0,-0.12 0,0 0,0 6.72,0 0,0 0,0 0,-0.12 2.28,-0.12 0,0 0,0 0,0.12 2.16,-0.12 0,0.24 0,0.12 0,-0.12 0,0 2.28,0 0,0.12 0,-0.12 2.28,0 0,0.12 0,0.12 0,0.12 6.72,-0.12 0,0 0,0 0,-0.24 0,0.96 2.16,0 0,0.12 0,-0.24 0,0.12 0,0 2.28,0 0,-0.12 0,0.12 0,1.32 4.44,0.36 0,0 0,0.24 9,0.12 2.28,0.36 0,3.48 0,-0.36 2.16,-0.36 2.28,0.12 6.72,0.12 0,0.24 2.28,-0.12 0,0 2.16,0.48 0,0 2.28,0 0,-0.12 2.28,0 0,0.36 6.72,0.12 0,0.12 0,0 2.16,-0.12 0,0 0,0 0,-0.12 2.28,0 0,-0.12 0,-0.36 2.28,-0.36 0,0.12 0,-0.24 2.16,0 0,0 0,0 6.72,0 0,0.12 0,-0.12 0,0.12 6.72,0.24 24.72,0 2.16,0.12 0,-0.36 6.72,0 0,0.12 0,0 4.56,0 6.72,-0.12 4.44,-0.24 6.72,0 0,0.24 0,-0.12 4.44,-0.24 0,-0.12 4.56,0 6.72,-0.12 2.16,0 22.44,0.6 9,0.36 4.44,1.2 2.28,0.48 6.72,-0.12 0,1.92 2.16,0.36 2.28,0.12 11.16,0.36 4.56,0 13.44,0.24 0,-0.24 2.16,0.12 4.56,-0.12 6.72,0.24 8.88,0 0,0.24 0,0.12 6.72,-0.12 0,0.12 0,-0.12 2.28,0 0,0 29.16,-0.36 0,0.12 17.88,-0.72 0,0.12 2.28,0.12 2.16,-0.6 0,0.12 2.28,-0.12 2.28,0 4.44,0 0,0 0,-0.12 0,0 0,0.12 2.28,0 0,0.72 2.16,0 0,0.36 2.28,0.12 0,0.72 0,-0.12 0,0.12 2.28,0 0,0 0,0.12 8.88,0.48 2.28,0.48 2.28,2.04 2.16,0.6 0,0.36 6.72,0.6 0,0 2.28,0 0,-0.24 0,0.24 2.28,0.36 0,0 2.16,-0.12 0,0.12 0,0.6 2.28,0.72 0,0.12 6.72,0.6 0,0 0,0.36 2.28,1.32 0,-0.36 2.16,0 4.56,1.92 6.72,2.04 2.16,0 0,0.24 2.28,0.48 0,0.12 2.28,1.2 0,0.48 2.16,0.12 0,0 9,0.48 0,1.08 2.28,0 2.16,0.48 2.28,0.12 0,-0.12 4.44,0.12 2.28,0 0,0 2.28,-0.12 2.16,0.12 2.28,0 6.72,0.48 2.28,0.6 2.16,0 0,0.36 2.28,-0.12 0,0 4.44,1.08 0,0.72 0,0.72 0,-0.12 6.72,0 0,0 4.56,0.6 2.16,-0.24 2.28,0.12 0,2.16 9,0.12 2.16,0.12 0,0.24 2.28,0 11.16,0 2.28,0 0,0.12 2.16,0.12 0,0 2.28,0.24 0,2.52 6.72,-0.6 0,3.24 0,0.12 2.28,0 0,0.6 2.16,0 0,0 0,0.36 2.28,3.24 0,3.6 0,0.12 0,0.84 2.28,0 0,-0.12 6.72,0.24 0,0.24 2.16,0 0,0.12 0,0.12 2.28,0.12 0,5.16 2.28,0.36 0,0 0,0.36 2.16,0.84 0,0.12 6.72,0 0,0 0,-0.12 0,0 2.28,0 0,0.12 0,0.12 0,0.6 2.28,0.24 0,0 2.16,-0.48 2.28,1.08 0,-0.12 0,0.12 0,0.24 6.73,0 0,0.56"
       style="fill:none;stroke:#a5a5a5;stroke-width:2.25;stroke-linecap:round;stroke-linejoin:round;stroke-miterlimit:10;stroke-opacity:1;stroke-dasharray:none"
       id="path4845"
       inkscape:connector-curvature="0" /><path
       d="m 111.14,150.84 2.26,-0.12 2.28,0 0,0 0,0 0,0 0,-0.06 0,0.18 2.16,0 0,-0.12 2.28,0 4.44,0 0,0 4.44,0.12 4.56,0.48 6.72,0.12 4.44,0 13.44,-0.24 0,0.12 0,0.12 2.28,0.24 0,-0.12 0,0 0,0 2.16,0 0,-0.12 0,0 0,0 0,0 0,-0.12 2.28,0 0,0 0,0 0,0 6.72,0 0,0.12 0,0 0,0 2.28,-0.12 0,0 0,0 0,0 2.16,0 0,0 0,0 0,0 0,-0.12 2.28,0 0,0 0,0 2.28,0 0,-0.12 0,0 6.72,-0.24 0,0 0,0 0,-0.12 0,0.24 2.16,0 0,-0.12 0,0.48 0,0 2.28,0 0,0.12 0,0 0,0.12 0,0.12 4.44,0 0,0 0,-0.24 9,0.48 2.28,0.12 0,1.08 0,0.24 2.16,0.24 2.28,0.12 0,0.12 6.72,0.36 0,0 2.28,-0.12 0,0 2.16,0 0,0 2.28,-0.12 0,0.12 2.28,0 0,0 6.72,0 0,0 0,0 2.16,0 0,0 0,0 0,0 2.28,0 0,-0.12 0,0 2.28,-0.24 0,0 0,0.12 2.16,0 0,0.12 0,-0.12 6.72,0 0,0 0,0.12 6.72,0.12 24.72,0 2.16,0 0,0.36 6.72,0 0,0 0,0 4.56,0 6.72,0.12 4.44,0.12 6.72,-0.12 0,0 0,0.12 4.44,0 0,-0.12 4.56,0.12 6.72,-0.12 2.16,0.24 22.44,0.48 9,0 4.44,0.12 2.28,0.12 6.72,0 0,0 2.16,0 2.28,0.12 11.16,0.12 4.56,0.12 13.44,0 0,0.12 2.16,0 4.56,0.24 6.72,-0.12 8.88,-0.12 0,0 0,0 6.72,0.12 0,0 0,0 2.28,0 0,0.12 29.16,0.12 17.88,0.12 0,0 2.28,-0.12 2.16,-0.12 0,0 2.28,0 2.28,0.36 4.44,0 0,0 0,0.24 0,0 2.28,0 0,0 2.16,-0.12 0,0 2.28,0 0,-0.12 0,0.12 2.28,0 0,0 8.88,0 2.28,0 2.28,0.24 2.16,0.12 0,0.12 6.72,0.12 0,0 2.28,0.12 0,0.24 0,0 2.28,0 0,0 2.16,0.12 0,-0.12 2.28,0 0,0 6.72,0 0,0.12 0,0 0,0.12 2.28,-0.12 0,0.48 2.16,0.24 4.56,0 6.72,0.12 2.16,-0.12 0,0.24 2.28,0 0,0 2.28,0 0,0.36 2.16,0.12 0,0 9,0.24 0,0 2.28,-0.12 2.16,0 2.28,0 0,0.12 4.44,0.24 2.28,0 0,0 2.28,0 2.16,-0.12 2.28,0 6.72,0.12 2.28,-0.48 2.16,0.24 0,0 2.28,0 0,0 4.44,-0.12 0,0.36 0,0 6.72,0 0,0 4.56,0.6 2.16,0.12 2.28,0 0,0 9,0.12 2.16,0 2.28,-0.12 11.16,-0.12 2.28,-0.12 0,0.24 2.16,0 0,0 2.28,0 0,0 6.72,-0.12 0,0 0,0 2.28,0 0,0 0,0.12 2.16,0 0,0 0,0.36 2.28,0.36 0,0 0,0 0,0.48 2.28,0.12 0,0.12 6.72,0 0,0 2.16,0 0,0 0,0.12 2.28,0.12 0,1.2 2.28,0 0,0.12 0,0 2.16,0 6.72,0 0,0 0,0 0,0.12 2.28,0 0,0 0,1.56 2.28,0 0,0.24 2.16,0.12 2.28,0.09 0,0.03 0,-0.12 6.73,0 0,0"
       style="fill:none;stroke:#ffc000;stroke-width:2.25;stroke-linecap:round;stroke-linejoin:round;stroke-miterlimit:10;stroke-opacity:1;stroke-dasharray:none"
       id="path4847"
       inkscape:connector-curvature="0" /><g
       id="g4849"><g
         id="g4851"
         clip-path="url(#clipPath4853)"><text
           transform="matrix(1,0,0,-1,67.032,101.14)"
           id="text4857"><tspan
             style="font-size:20.04000092px;font-variant:normal;font-weight:normal;writing-mode:lr-tb;fill:#595959;fill-opacity:1;fill-rule:nonzero;stroke:none;font-family:Calibri;-inkscape-font-specification:Calibri"
             x="0 10.07998"
             y="0"
             sodipodi:role="line"
             id="tspan4859">0%</tspan></text>
</g></g><g
       id="g4861"><g
         id="g4863"
         clip-path="url(#clipPath4865)"><text
           transform="matrix(1,0,0,-1,56.904,163.13)"
           id="text4869"><tspan
             style="font-size:20.04000092px;font-variant:normal;font-weight:normal;writing-mode:lr-tb;fill:#595959;fill-opacity:1;fill-rule:nonzero;stroke:none;font-family:Calibri;-inkscape-font-specification:Calibri"
             x="0 10.08012 20.2404"
             y="0"
             sodipodi:role="line"
             id="tspan4871">10%</tspan></text>
</g></g><g
       id="g4873"><g
         id="g4875"
         clip-path="url(#clipPath4877)"><text
           transform="matrix(1,0,0,-1,56.904,225.12)"
           id="text4881"><tspan
             style="font-size:20.06399918px;font-variant:normal;font-weight:normal;writing-mode:lr-tb;fill:#595959;fill-opacity:1;fill-rule:nonzero;stroke:none;font-family:Calibri;-inkscape-font-specification:Calibri"
             x="0 10.072128 20.244576"
             y="0"
             sodipodi:role="line"
             id="tspan4883">20%</tspan></text>
</g></g><g
       id="g4885"><g
         id="g4887"
         clip-path="url(#clipPath4889)"><text
           transform="matrix(1,0,0,-1,56.904,287.09)"
           id="text4893"><tspan
             style="font-size:20.04000092px;font-variant:normal;font-weight:normal;writing-mode:lr-tb;fill:#595959;fill-opacity:1;fill-rule:nonzero;stroke:none;font-family:Calibri;-inkscape-font-specification:Calibri"
             x="0 10.08012 20.2404"
             y="0"
             sodipodi:role="line"
             id="tspan4895">30%</tspan></text>
</g></g><g
       id="g4897"><g
         id="g4899"
         clip-path="url(#clipPath4901)"><text
           transform="matrix(1,0,0,-1,56.904,349.08)"
           id="text4905"><tspan
             style="font-size:20.06399918px;font-variant:normal;font-weight:normal;writing-mode:lr-tb;fill:#595959;fill-opacity:1;fill-rule:nonzero;stroke:none;font-family:Calibri;-inkscape-font-specification:Calibri"
             x="0 10.072128 20.244576"
             y="0"
             sodipodi:role="line"
             id="tspan4907">40%</tspan></text>
</g></g><g
       id="g4909"><g
         id="g4911"
         clip-path="url(#clipPath4913)"><text
           transform="matrix(1,0,0,-1,56.904,411.05)"
           id="text4917"><tspan
             style="font-size:20.04000092px;font-variant:normal;font-weight:normal;writing-mode:lr-tb;fill:#595959;fill-opacity:1;fill-rule:nonzero;stroke:none;font-family:Calibri;-inkscape-font-specification:Calibri"
             x="0 10.08012 20.2404"
             y="0"
             sodipodi:role="line"
             id="tspan4919">50%</tspan></text>
</g></g><g
       id="g4921"><g
         id="g4923"
         clip-path="url(#clipPath4925)"><text
           transform="matrix(1,0,0,-1,56.904,473.04)"
           id="text4929"><tspan
             style="font-size:20.04000092px;font-variant:normal;font-weight:normal;writing-mode:lr-tb;fill:#595959;fill-opacity:1;fill-rule:nonzero;stroke:none;font-family:Calibri;-inkscape-font-specification:Calibri"
             x="0 10.08012 20.2404"
             y="0"
             sodipodi:role="line"
             id="tspan4931">60%</tspan></text>
</g></g><g
       id="g4933"><g
         id="g4935"
         clip-path="url(#clipPath4937)"><text
           transform="matrix(1,0,0,-1,56.904,535.01)"
           id="text4941"><tspan
             style="font-size:20.04000092px;font-variant:normal;font-weight:normal;writing-mode:lr-tb;fill:#595959;fill-opacity:1;fill-rule:nonzero;stroke:none;font-family:Calibri;-inkscape-font-specification:Calibri"
             x="0 10.08012 20.2404"
             y="0"
             sodipodi:role="line"
             id="tspan4943">70%</tspan></text>
</g></g><g
       id="g4945"><g
         id="g4947"
         clip-path="url(#clipPath4949)"><text
           transform="matrix(1,0,0,-1,100.42,75.12)"
           id="text4953"><tspan
             style="font-size:20.04000092px;font-variant:normal;font-weight:normal;writing-mode:lr-tb;fill:#595959;fill-opacity:1;fill-rule:nonzero;stroke:none;font-family:Calibri;-inkscape-font-specification:Calibri"
             x="0 6.3927598 16.913759"
             y="0"
             sodipodi:role="line"
             id="tspan4955">Jul</tspan></text>
</g></g><g
       id="g4957"><g
         id="g4959"
         clip-path="url(#clipPath4961)"><text
           transform="matrix(1,0,0,-1,164.86,75.12)"
           id="text4965"><tspan
             style="font-size:20.04000092px;font-variant:normal;font-weight:normal;writing-mode:lr-tb;fill:#595959;fill-opacity:1;fill-rule:nonzero;stroke:none;font-family:Calibri;-inkscape-font-specification:Calibri"
             x="0 11.523 22.044001"
             y="0"
             sodipodi:role="line"
             id="tspan4967">Aug</tspan></text>
</g></g><g
       id="g4969"><g
         id="g4971"
         clip-path="url(#clipPath4973)"><text
           transform="matrix(1,0,0,-1,235.22,75.12)"
           id="text4977"><tspan
             style="font-size:20.04000092px;font-variant:normal;font-weight:normal;writing-mode:lr-tb;fill:#595959;fill-opacity:1;fill-rule:nonzero;stroke:none;font-family:Calibri;-inkscape-font-specification:Calibri"
             x="0 9.1983604 19.17828"
             y="0"
             sodipodi:role="line"
             id="tspan4979">Sep</tspan></text>
</g></g><g
       id="g4981"><g
         id="g4983"
         clip-path="url(#clipPath4985)"><text
           transform="matrix(1,0,0,-1,303.05,75.12)"
           id="text4989"><tspan
             style="font-size:20.04000092px;font-variant:normal;font-weight:normal;writing-mode:lr-tb;fill:#595959;fill-opacity:1;fill-rule:nonzero;stroke:none;font-family:Calibri;-inkscape-font-specification:Calibri"
             x="0 13.20636 21.683281"
             y="0"
             sodipodi:role="line"
             id="tspan4991">Oct</tspan></text>
</g></g><g
       id="g4993"><g
         id="g4995"
         clip-path="url(#clipPath4997)"><text
           transform="matrix(1,0,0,-1,370.44,75.12)"
           id="text5001"><tspan
             style="font-size:20.04000092px;font-variant:normal;font-weight:normal;writing-mode:lr-tb;fill:#595959;fill-opacity:1;fill-rule:nonzero;stroke:none;font-family:Calibri;-inkscape-font-specification:Calibri"
             x="0 12.94584 23.406719"
             y="0"
             sodipodi:role="line"
             id="tspan5003">Nov</tspan></text>
</g></g><g
       id="g5005"><g
         id="g5007"
         clip-path="url(#clipPath5009)"><text
           transform="matrix(1,0,0,-1,438.55,75.12)"
           id="text5013"><tspan
             style="font-size:20.04000092px;font-variant:normal;font-weight:normal;writing-mode:lr-tb;fill:#595959;fill-opacity:1;fill-rule:nonzero;stroke:none;font-family:Calibri;-inkscape-font-specification:Calibri"
             x="0 12.3246 22.204321"
             y="0"
             sodipodi:role="line"
             id="tspan5015">Dec</tspan></text>
</g></g><g
       id="g5017"><g
         id="g5019"
         clip-path="url(#clipPath5021)"><text
           transform="matrix(1,0,0,-1,510.12,75.12)"
           id="text5025"><tspan
             style="font-size:20.04000092px;font-variant:normal;font-weight:normal;writing-mode:lr-tb;fill:#595959;fill-opacity:1;fill-rule:nonzero;stroke:none;font-family:Calibri;-inkscape-font-specification:Calibri"
             x="0 6.3927598 15.99192"
             y="0"
             sodipodi:role="line"
             id="tspan5027">Jan</tspan></text>
</g></g><g
       id="g5029"><g
         id="g5031"
         clip-path="url(#clipPath5033)"><text
           transform="matrix(1,0,0,-1,577.97,75.12)"
           id="text5037"><tspan
             style="font-size:20.04000092px;font-variant:normal;font-weight:normal;writing-mode:lr-tb;fill:#595959;fill-opacity:1;fill-rule:nonzero;stroke:none;font-family:Calibri;-inkscape-font-specification:Calibri"
             x="0 9.1983604 19.17828"
             y="0"
             sodipodi:role="line"
             id="tspan5039">Feb</tspan></text>
</g></g><g
       id="g5041"><g
         id="g5043"
         clip-path="url(#clipPath5045)"><text
           transform="matrix(1,0,0,-1,638.69,75.12)"
           id="text5049"><tspan
             style="font-size:20.04000092px;font-variant:normal;font-weight:normal;writing-mode:lr-tb;fill:#595959;fill-opacity:1;fill-rule:nonzero;stroke:none;font-family:Calibri;-inkscape-font-specification:Calibri"
             x="0 17.134199 26.63316"
             y="0"
             sodipodi:role="line"
             id="tspan5051">Mar</tspan></text>
</g></g><g
       id="g5053"><g
         id="g5055"
         clip-path="url(#clipPath5057)"><path
           d="m 50.4,63.406 682.09,0 0,494.59 -682.09,0 0,-494.59 z"
           style="fill:none;stroke:#d9d9d9;stroke-width:0.75;stroke-linecap:butt;stroke-linejoin:round;stroke-miterlimit:10;stroke-opacity:1;stroke-dasharray:none"
           id="path5061"
           inkscape:connector-curvature="0" /></g></g><path
       d="m 181.08,432.1 187.65,0 0,30.907 -187.65,0 0,-30.907 z"
       style="fill:#ffffff;fill-opacity:1;fill-rule:evenodd;stroke:none"
       id="path5063"
       inkscape:connector-curvature="0" /><g
       id="g5065"><g
         id="g5067"
         clip-path="url(#clipPath5069)"><text
           transform="matrix(1,0,0,-1,188.3,440.3)"
           id="text5073"><tspan
             style="font-size:20.04000092px;font-variant:normal;font-weight:normal;writing-mode:lr-tb;fill:#5b9bd5;fill-opacity:1;fill-rule:nonzero;stroke:none;font-family:Calibri;-inkscape-font-specification:Calibri"
             x="0 10.36068 19.959841 29.39868 39.378601 47.214241 51.603001 65.931602 70.440598 77.153999 87.675003 92.26416 102.42444 106.95348 121.18188 130.78104 137.49445 145.97136 156.55247 166.53239"
             y="0"
             sodipodi:role="line"
             id="tspan5075">Pages with 1 watcher</tspan></text>
</g></g><path
       d="m 209.4,232.26 236.52,0 0,30.907 -236.52,0 0,-30.907 z"
       style="fill:#ffffff;fill-opacity:1;fill-rule:evenodd;stroke:none"
       id="path5077"
       inkscape:connector-curvature="0" /><g
       id="g5079"><g
         id="g5081"
         clip-path="url(#clipPath5083)"><text
           transform="matrix(1,0,0,-1,216.62,240.41)"
           id="text5087"><tspan
             style="font-size:20.04000092px;font-variant:normal;font-weight:normal;writing-mode:lr-tb;fill:#ed7d31;fill-opacity:1;fill-rule:nonzero;stroke:none;font-family:Calibri;-inkscape-font-specification:Calibri"
             x="0 10.36068 19.959841 29.39868 39.378601 47.214241 51.603001 65.931602 70.440598 77.153999 87.675003 92.26416 102.42444 106.95348 121.18188 130.78104 137.49445 145.97136 156.55247 166.53239 173.52637"
             y="0"
             sodipodi:role="line"
             id="tspan5089">Pages with 2 watchers</tspan></text>
</g></g><path
       d="m 229.4,172.26 236.52,0 0,30.907 -236.52,0 0,-30.907 z"
       style="fill:#ffffff;fill-opacity:1;fill-rule:evenodd;stroke:none"
       id="path5091"
       inkscape:connector-curvature="0" /><g
       id="g5093"><g
         id="g5095"
         clip-path="url(#clipPath5097)"><text
           transform="matrix(1,0,0,-1,236.62,180.41)"
           id="text5101"><tspan
             style="font-size:20.04000092px;font-variant:normal;font-weight:normal;writing-mode:lr-tb;fill:#7f7f7f;fill-opacity:1;fill-rule:nonzero;stroke:none;font-family:Calibri;-inkscape-font-specification:Calibri"
             x="0 10.36068 19.959841 29.458799 39.438721 47.274361 51.683159 66.011757 70.540802 77.254204 87.815277 92.344322"
             y="0"
             sodipodi:role="line"
             id="tspan5103">Pages with 3</tspan></text>
</g></g><g
       id="g5105"><g
         id="g5107"
         clip-path="url(#clipPath5109)"><text
           transform="matrix(1,0,0,-1,339.12,180.41)"
           id="text5113"><tspan
             style="font-size:20.04000092px;font-variant:normal;font-weight:normal;writing-mode:lr-tb;fill:#7f7f7f;fill-opacity:1;fill-rule:nonzero;stroke:none;font-family:Calibri;-inkscape-font-specification:Calibri"
             x="0"
             y="0"
             id="tspan5115">-</tspan></text>
</g></g><g
       id="g5117"><g
         id="g5119"
         clip-path="url(#clipPath5121)"><text
           transform="matrix(1,0,0,-1,345.24,180.41)"
           id="text5125"><tspan
             style="font-size:20.04000092px;font-variant:normal;font-weight:normal;writing-mode:lr-tb;fill:#7f7f7f;fill-opacity:1;fill-rule:nonzero;stroke:none;font-family:Calibri;-inkscape-font-specification:Calibri"
             x="0 10.16028 14.529 28.857599 38.45676 45.170158 53.647079 64.168083 74.148003 81.14196"
             y="0"
             sodipodi:role="line"
             id="tspan5127">5 watchers</tspan></text>
</g></g><path
       d="m 242.73,120.59 236.52,0 0,30.907 -236.52,0 0,-30.907 z"
       style="fill:#ffffff;fill-opacity:1;fill-rule:evenodd;stroke:none"
       id="path5129"
       inkscape:connector-curvature="0" /><g
       id="g5131"><g
         id="g5133"
         clip-path="url(#clipPath5135)"><text
           transform="matrix(1,0,0,-1,249.96,128.71)"
           id="text5139"><tspan
             style="font-size:20.04000092px;font-variant:normal;font-weight:normal;writing-mode:lr-tb;fill:#eeb500;fill-opacity:1;fill-rule:nonzero;stroke:none;font-family:Calibri;-inkscape-font-specification:Calibri"
             x="0 10.36068 19.959841 29.39868 39.378601 47.214241 51.603001 65.931602 70.440598 77.153999 87.675003 92.26416 102.42444 112.40436 116.87328 131.20187 140.80104 147.51443 155.99136 166.51236 176.49228 183.48624"
             y="0"
             sodipodi:role="line"
             id="tspan5141">Pages with 6+ watchers</tspan></text>
</g></g><path
       d="m 493.15,501.33 0,-28.5 -0.5,0 0,28.5 0.5,0 z m 4.75,-27.5 -5,-10 -5,10 10,0 z"
       style="fill:#5b9bd5;fill-opacity:1;fill-rule:nonzero;stroke:none"
       id="path5143"
       inkscape:connector-curvature="0" /><path
       d="m 472.9,489.67 170,0 0,61.666 -170,0 0,-61.666 z"
       style="fill:#ffffff;fill-opacity:1;fill-rule:evenodd;stroke:none"
       id="path5145"
       inkscape:connector-curvature="0" /><path
       d="m 472.9,489.67 170,0 0,61.666 -170,0 0,-61.666 z"
       style="fill:none;stroke:#5b9bd5;stroke-width:0.75;stroke-linecap:butt;stroke-linejoin:round;stroke-miterlimit:10;stroke-opacity:1;stroke-dasharray:none"
       id="path5147"
       inkscape:connector-curvature="0" /><g
       id="g5149"><g
         id="g5151"
         clip-path="url(#clipPath5153)"><text
           transform="matrix(1,0,0,-1,480.77,525.82)"
           id="text5157"><tspan
             style="font-size:20.04000092px;font-variant:normal;font-weight:normal;writing-mode:lr-tb;fill:#000000;fill-opacity:1;fill-rule:nonzero;stroke:none;font-family:Calibri;-inkscape-font-specification:Calibri"
             x="0 17.8356 27.434759 34.148159 42.705238 53.226238 57.594959 66.79332 77.374443 86.813278 96.312241 106.29216 114.1278 120.8412 125.3502 135.91129 146.43228 154.26791"
             y="0"
             sodipodi:role="line"
             id="tspan5159">Watch Suggestions </tspan></text>
</g></g><g
       id="g5161"><g
         id="g5163"
         clip-path="url(#clipPath5165)"><text
           transform="matrix(1,0,0,-1,523.27,501.46)"
           id="text5169"><tspan
             style="font-size:20.04000092px;font-variant:normal;font-weight:normal;writing-mode:lr-tb;fill:#000000;fill-opacity:1;fill-rule:nonzero;stroke:none;font-family:Calibri;-inkscape-font-specification:Calibri"
             x="0 5.0500798 15.57108 23.406719 30.120119 39.71928 44.32848 48.837479 58.817402"
             y="0"
             sodipodi:role="line"
             id="tspan5171">Installed</tspan></text>
</g></g></g></svg>