<?xml version="1.0" encoding="UTF-8" standalone="no"?>
<!-- Created with Inkscape (http://www.inkscape.org/) -->

<svg
   xmlns:dc="http://purl.org/dc/elements/1.1/"
   xmlns:cc="http://creativecommons.org/ns#"
   xmlns:rdf="http://www.w3.org/1999/02/22-rdf-syntax-ns#"
   xmlns:svg="http://www.w3.org/2000/svg"
   xmlns="http://www.w3.org/2000/svg"
   xmlns:sodipodi="http://sodipodi.sourceforge.net/DTD/sodipodi-0.dtd"
   xmlns:inkscape="http://www.inkscape.org/namespaces/inkscape"
   id="svg4397"
   version="1.1"
   inkscape:version="0.48.5 r10040"
   width="853.09375"
   height="618.7146"
   xml:space="preserve"
   sodipodi:docname="watchersWithTime.pdf"><metadata
     id="metadata4403"><rdf:RDF><cc:Work
         rdf:about=""><dc:format>image/svg+xml</dc:format><dc:type
           rdf:resource="http://purl.org/dc/dcmitype/StillImage" /><dc:title></dc:title></cc:Work></rdf:RDF></metadata><defs
     id="defs4401"><clipPath
       clipPathUnits="userSpaceOnUse"
       id="clipPath4411"><path
         d="m 50.4,54 691.2,0 0,504 -691.2,0 0,-504 z"
         clip-rule="evenodd"
         id="path4413"
         inkscape:connector-curvature="0" /></clipPath><clipPath
       clipPathUnits="userSpaceOnUse"
       id="clipPath4435"><path
         d="m 50.4,63.48 682.08,0 0,494.52 -682.08,0 0,-494.52 z"
         clip-rule="evenodd"
         id="path4437"
         inkscape:connector-curvature="0" /></clipPath><clipPath
       clipPathUnits="userSpaceOnUse"
       id="clipPath4447"><path
         d="m 50.4,63.48 682.08,0 0,494.52 -682.08,0 0,-494.52 z"
         clip-rule="evenodd"
         id="path4449"
         inkscape:connector-curvature="0" /></clipPath><clipPath
       clipPathUnits="userSpaceOnUse"
       id="clipPath4459"><path
         d="m 50.4,63.48 682.08,0 0,494.52 -682.08,0 0,-494.52 z"
         clip-rule="evenodd"
         id="path4461"
         inkscape:connector-curvature="0" /></clipPath><clipPath
       clipPathUnits="userSpaceOnUse"
       id="clipPath4471"><path
         d="m 50.4,63.48 682.08,0 0,494.52 -682.08,0 0,-494.52 z"
         clip-rule="evenodd"
         id="path4473"
         inkscape:connector-curvature="0" /></clipPath><clipPath
       clipPathUnits="userSpaceOnUse"
       id="clipPath4483"><path
         d="m 50.4,63.48 682.08,0 0,494.52 -682.08,0 0,-494.52 z"
         clip-rule="evenodd"
         id="path4485"
         inkscape:connector-curvature="0" /></clipPath><clipPath
       clipPathUnits="userSpaceOnUse"
       id="clipPath4495"><path
         d="m 50.4,63.48 682.08,0 0,494.52 -682.08,0 0,-494.52 z"
         clip-rule="evenodd"
         id="path4497"
         inkscape:connector-curvature="0" /></clipPath><clipPath
       clipPathUnits="userSpaceOnUse"
       id="clipPath4507"><path
         d="m 50.4,63.48 682.08,0 0,494.52 -682.08,0 0,-494.52 z"
         clip-rule="evenodd"
         id="path4509"
         inkscape:connector-curvature="0" /></clipPath><clipPath
       clipPathUnits="userSpaceOnUse"
       id="clipPath4519"><path
         d="m 50.4,63.48 682.08,0 0,494.52 -682.08,0 0,-494.52 z"
         clip-rule="evenodd"
         id="path4521"
         inkscape:connector-curvature="0" /></clipPath><clipPath
       clipPathUnits="userSpaceOnUse"
       id="clipPath4531"><path
         d="m 50.4,63.48 682.08,0 0,494.52 -682.08,0 0,-494.52 z"
         clip-rule="evenodd"
         id="path4533"
         inkscape:connector-curvature="0" /></clipPath><clipPath
       clipPathUnits="userSpaceOnUse"
       id="clipPath4543"><path
         d="m 50.4,63.48 682.08,0 0,494.52 -682.08,0 0,-494.52 z"
         clip-rule="evenodd"
         id="path4545"
         inkscape:connector-curvature="0" /></clipPath><clipPath
       clipPathUnits="userSpaceOnUse"
       id="clipPath4555"><path
         d="m 50.4,63.48 682.08,0 0,494.52 -682.08,0 0,-494.52 z"
         clip-rule="evenodd"
         id="path4557"
         inkscape:connector-curvature="0" /></clipPath><clipPath
       clipPathUnits="userSpaceOnUse"
       id="clipPath4567"><path
         d="m 50.4,63.48 682.08,0 0,494.52 -682.08,0 0,-494.52 z"
         clip-rule="evenodd"
         id="path4569"
         inkscape:connector-curvature="0" /></clipPath><clipPath
       clipPathUnits="userSpaceOnUse"
       id="clipPath4579"><path
         d="m 50.4,63.48 682.08,0 0,494.52 -682.08,0 0,-494.52 z"
         clip-rule="evenodd"
         id="path4581"
         inkscape:connector-curvature="0" /></clipPath><clipPath
       clipPathUnits="userSpaceOnUse"
       id="clipPath4591"><path
         d="m 50.4,63.48 682.08,0 0,494.52 -682.08,0 0,-494.52 z"
         clip-rule="evenodd"
         id="path4593"
         inkscape:connector-curvature="0" /></clipPath><clipPath
       clipPathUnits="userSpaceOnUse"
       id="clipPath4603"><path
         d="m 50.4,63.48 682.08,0 0,494.52 -682.08,0 0,-494.52 z"
         clip-rule="evenodd"
         id="path4605"
         inkscape:connector-curvature="0" /></clipPath><clipPath
       clipPathUnits="userSpaceOnUse"
       id="clipPath4615"><path
         d="m 50.4,63.48 682.08,0 0,494.52 -682.08,0 0,-494.52 z"
         clip-rule="evenodd"
         id="path4617"
         inkscape:connector-curvature="0" /></clipPath><clipPath
       clipPathUnits="userSpaceOnUse"
       id="clipPath4627"><path
         d="m 50.4,63.48 682.08,0 0,494.52 -682.08,0 0,-494.52 z"
         clip-rule="evenodd"
         id="path4629"
         inkscape:connector-curvature="0" /></clipPath><clipPath
       clipPathUnits="userSpaceOnUse"
       id="clipPath4639"><path
         d="m 50.4,54 691.2,0 0,504 -691.2,0 0,-504 z"
         clip-rule="evenodd"
         id="path4641"
         inkscape:connector-curvature="0" /></clipPath><clipPath
       clipPathUnits="userSpaceOnUse"
       id="clipPath4651"><path
         d="m 50.4,432.12 682.2,0 0,30.84 -682.2,0 0,-30.84 z"
         clip-rule="evenodd"
         id="path4653"
         inkscape:connector-curvature="0" /></clipPath><clipPath
       clipPathUnits="userSpaceOnUse"
       id="clipPath4665"><path
         d="m 50.4,63.36 682.2,0 0,494.64 -682.2,0 0,-494.64 z"
         clip-rule="evenodd"
         id="path4667"
         inkscape:connector-curvature="0" /></clipPath><clipPath
       clipPathUnits="userSpaceOnUse"
       id="clipPath4679"><path
         d="m 50.4,63.36 682.2,0 0,494.64 -682.2,0 0,-494.64 z"
         clip-rule="evenodd"
         id="path4681"
         inkscape:connector-curvature="0" /></clipPath><clipPath
       clipPathUnits="userSpaceOnUse"
       id="clipPath4691"><path
         d="m 50.4,63.36 682.2,0 0,494.64 -682.2,0 0,-494.64 z"
         clip-rule="evenodd"
         id="path4693"
         inkscape:connector-curvature="0" /></clipPath><clipPath
       clipPathUnits="userSpaceOnUse"
       id="clipPath4703"><path
         d="m 50.4,63.36 682.2,0 0,494.64 -682.2,0 0,-494.64 z"
         clip-rule="evenodd"
         id="path4705"
         inkscape:connector-curvature="0" /></clipPath><clipPath
       clipPathUnits="userSpaceOnUse"
       id="clipPath4717"><path
         d="m 50.4,63.36 682.2,0 0,494.64 -682.2,0 0,-494.64 z"
         clip-rule="evenodd"
         id="path4719"
         inkscape:connector-curvature="0" /></clipPath><clipPath
       clipPathUnits="userSpaceOnUse"
       id="clipPath4735"><path
         d="m 50.4,63.36 682.2,0 0,494.64 -682.2,0 0,-494.64 z"
         clip-rule="evenodd"
         id="path4737"
         inkscape:connector-curvature="0" /></clipPath><clipPath
       clipPathUnits="userSpaceOnUse"
       id="clipPath4747"><path
         d="m 50.4,489.72 682.2,0 0,61.56 -682.2,0 0,-61.56 z"
         clip-rule="evenodd"
         id="path4749"
         inkscape:connector-curvature="0" /></clipPath><clipPath
       clipPathUnits="userSpaceOnUse"
       id="clipPath4759"><path
         d="m 50.4,489.72 682.2,0 0,61.56 -682.2,0 0,-61.56 z"
         clip-rule="evenodd"
         id="path4761"
         inkscape:connector-curvature="0" /></clipPath><clipPath
       clipPathUnits="userSpaceOnUse"
       id="clipPath4771"><path
         d="m 50.4,489.72 682.2,0 0,61.56 -682.2,0 0,-61.56 z"
         clip-rule="evenodd"
         id="path4773"
         inkscape:connector-curvature="0" /></clipPath><clipPath
       clipPathUnits="userSpaceOnUse"
       id="clipPath4783"><path
         d="m 50.4,489.72 682.2,0 0,61.56 -682.2,0 0,-61.56 z"
         clip-rule="evenodd"
         id="path4785"
         inkscape:connector-curvature="0" /></clipPath><clipPath
       clipPathUnits="userSpaceOnUse"
       id="clipPath4795"><path
         d="m 50.4,489.72 682.2,0 0,61.56 -682.2,0 0,-61.56 z"
         clip-rule="evenodd"
         id="path4797"
         inkscape:connector-curvature="0" /></clipPath><clipPath
       clipPathUnits="userSpaceOnUse"
       id="clipPath4807"><path
         d="m 50.4,489.72 682.2,0 0,61.56 -682.2,0 0,-61.56 z"
         clip-rule="evenodd"
         id="path4809"
         inkscape:connector-curvature="0" /></clipPath></defs><sodipodi:namedview
     pagecolor="#ffffff"
     bordercolor="#666666"
     borderopacity="1"
     objecttolerance="10"
     gridtolerance="10"
     guidetolerance="10"
     inkscape:pageopacity="0"
     inkscape:pageshadow="2"
     inkscape:window-width="640"
     inkscape:window-height="480"
     id="namedview4399"
     showgrid="false"
     fit-margin-top="0"
     fit-margin-left="0"
     fit-margin-right="0"
     fit-margin-bottom="0"
     inkscape:zoom="0.30849673"
     inkscape:cx="432"
     inkscape:cy="303.71461"
     inkscape:window-x="0"
     inkscape:window-y="0"
     inkscape:window-maximized="0"
     inkscape:current-layer="g4405" /><g
     id="g4405"
     inkscape:groupmode="layer"
     inkscape:label="watchersWithTime"
     transform="matrix(1.25,0,0,-1.25,-63,697.5)"><g
       id="g4407"><g
         id="g4409"
         clip-path="url(#clipPath4411)"><path
           d="m 50.4,63.406 682.09,0 0,494.59 -682.09,0 0,-494.59 z"
           style="fill:#ffffff;fill-opacity:1;fill-rule:evenodd;stroke:none"
           id="path4415"
           inkscape:connector-curvature="0" /></g></g><path
       d="m 110.02,168.96 611.47,0 M 110.02,231 l 611.47,0 m -611.47,61.92 611.47,0 m -611.47,61.92 611.47,0 m -611.47,62.04 611.47,0 m -611.47,61.92 611.47,0 m -611.47,61.99 611.47,0"
       style="fill:none;stroke:#d9d9d9;stroke-width:0.75;stroke-linecap:butt;stroke-linejoin:round;stroke-miterlimit:10;stroke-opacity:1;stroke-dasharray:none"
       id="path4417"
       inkscape:connector-curvature="0" /><path
       d="m 110.02,107.02 611.47,0"
       style="fill:none;stroke:#d9d9d9;stroke-width:0.75;stroke-linecap:butt;stroke-linejoin:round;stroke-miterlimit:10;stroke-opacity:1;stroke-dasharray:none"
       id="path4419"
       inkscape:connector-curvature="0" /><path
       d="m 110.02,107.02 0,-6.35 m 69.38,6.35 0,-6.35 m 69.48,6.35 0,-6.35 m 67.2,6.35 0,-6.35 m 69.48,6.35 0,-6.35 m 67.2,6.35 0,-6.35 m 69.36,6.35 0,-6.35 m 69.48,6.35 0,-6.35 m 62.7,6.35 0,-6.35"
       style="fill:none;stroke:#d9d9d9;stroke-width:0.75;stroke-linecap:butt;stroke-linejoin:round;stroke-miterlimit:10;stroke-opacity:1;stroke-dasharray:none"
       id="path4421"
       inkscape:connector-curvature="0" /><path
       d="m 111.14,487.32 2.26,0.46 2.28,0 0,-0.1 0,-0.12 0,0 0,0.24 0,-0.24 0,0 0,-0.24 2.16,0 0,-0.24 0,0.12 2.28,0 4.44,0.12 0,-0.36 0,0.12 4.44,-0.12 4.56,-1.68 6.72,-0.72 4.44,-0.84 13.44,0.12 0,-0.12 0,-0.12 2.28,-0.36 0,-0.12 0,-0.6 0,0 2.16,0 0,-0.6 0,-0.12 0,0.12 0,-0.36 0,0 0,0.12 2.28,0.24 0,0 0,0.12 0,0 0,-0.12 6.72,0 0,0.12 0,0 0,-0.12 0,0 2.28,0.36 0,0.12 0,-0.12 0,0.12 0,0 2.16,0.12 0,0.12 0,0 0,-0.12 0,0.12 2.28,0 0,0 0,0 2.28,-0.12 0,0.24 0,-0.24 0,-0.12 0,-2.16 6.72,-0.36 0,0 0,-0.12 0,0.48 0,-1.56 2.16,0 0,-0.36 0,0.24 0,-0.24 0,0.24 2.28,0 0,-0.12 0,0 0,-0.36 0,-2.52 4.44,-1.08 0,-0.12 0,-0.36 9,-1.8 2.28,-1.92 0,-1.2 0,0.24 2.16,0 2.28,-0.12 0,-0.12 6.72,0.12 0,-0.12 2.28,0.12 0,0.24 2.16,0 0,0 2.28,0.24 0,-0.24 2.28,0 0,-0.72 6.72,-0.36 0,-0.24 0,-0.12 2.16,-0.24 0,0 0,-0.12 0,0.12 2.28,0 0,0.24 0,0.72 2.28,0.84 0,-0.12 0,-0.12 2.16,0.12 0,-0.24 0,0.36 6.72,0 0,0 6.72,0.12 24.72,-0.36 2.16,0.24 0,0.12 6.72,-0.96 0,-1.08 0,-0.12 4.56,-0.12 6.72,-0.48 4.44,0.24 6.72,0 0,-0.24 0,-0.12 4.44,0.6 0,0.12 4.56,-0.36 6.72,0 2.16,-0.48 22.44,-0.36 0,-0.36 9,-0.48 4.44,-0.48 2.28,-0.72 0,-0.24 6.72,0.12 0,-2.88 2.16,-0.24 2.28,-0.6 11.16,-0.48 4.56,0.12 13.44,0 0,0 2.16,0.12 4.56,0.24 6.72,0 8.88,0.12 0,-0.12 0,-0.12 6.72,0 0,0 0,0.24 2.28,0.12 0,-0.24 29.16,-0.36 17.88,0.24 0,-0.12 2.28,-0.36 2.16,0.6 0,-0.12 0,-0.24 2.28,-0.12 2.28,-1.92 4.44,-0.36 0,-0.12 0,-0.36 0,-3.12 0,-1.08 0,-0.72 2.28,0 0,-2.16 2.16,-0.36 0,-1.56 2.28,-0.48 0,-0.24 0,0.12 0,-0.72 2.28,0 0,0.12 0,-0.84 8.88,-2.28 2.28,-9 2.28,-3.12 2.16,-1.56 0,-5.64 6.72,-3.48 0,-2.4 2.28,-4.8 0,-1.2 0,-9 2.28,-0.84 0,0.12 2.16,-0.24 0,-0.36 0,-6.48 0,-2.52 2.28,0 0,-2.88 0,-0.72 6.72,-0.36 0,-0.36 2.28,0 0,-0.24 2.16,-10.8 4.56,-101.4 6.72,-7.56 2.16,-1.56 0,-0.24 2.28,-1.68 0,-4.68 2.28,-2.76 0,-1.32 2.16,-0.24 0,-2.16 9,-0.96 0,-0.72 2.28,0.24 2.16,-0.24 2.28,0.12 4.44,-0.12 2.28,0.24 0,0 2.28,0.12 2.16,0.12 2.28,-0.12 6.72,-0.72 2.28,-1.92 2.16,-2.28 0,0.12 2.28,0.24 0,-0.12 4.44,0 0,-0.24 0,-0.36 0,0.12 6.72,0 0,0.24 4.56,-0.48 2.16,0.36 2.28,-0.96 0,-2.28 9,-1.08 2.16,0 2.28,0 11.16,0.36 2.28,0 0,0.12 2.16,0.36 0,0.12 2.28,-0.36 0,-0.36 6.72,-6.6 0,0.24 0,0.12 2.28,0.12 0,-2.64 0,-1.2 2.16,0 0,-0.84 0,0 2.28,-2.28 0,-0.24 0,-2.28 0,0 2.28,-0.36 0,-1.2 0,-0.36 6.72,-1.2 0,-0.24 2.16,0 0,0.24 0,0.24 0,-0.12 0,-0.12 2.28,-0.12 0,-0.12 2.28,0.24 0,-0.24 0,0.24 2.16,-0.36 6.72,-0.24 0,0.12 0,-0.36 0,-64.68 2.28,0 0,-0.36 0,-1.8 0,-1.32 2.28,-0.72 0,-0.72 2.16,0.6 2.28,0 0,0 0,0.24 0,-0.12 6.73,0 0,0.12"
       style="fill:none;stroke:#5b9bd5;stroke-width:2.25;stroke-linecap:round;stroke-linejoin:round;stroke-miterlimit:10;stroke-opacity:1;stroke-dasharray:none"
       id="path4423"
       inkscape:connector-curvature="0" /><path
       d="m 111.14,214.08 2.26,-0.52 2.28,0 0,0.16 0,0.12 0,0 0,-0.12 0,0.36 0,-0.12 2.16,0 0,-0.12 2.28,0 4.44,-0.12 0,-0.12 4.44,0.12 4.56,0.48 6.72,0.12 4.44,0.36 13.44,0 0,0.12 2.28,-0.36 0,0.12 0,0.12 0,0.12 2.16,0 0,0.6 0,0.12 0,0 0,0.36 0,0.12 0,-0.48 2.28,0 0,-0.12 0,0 0,0 0,0.12 6.72,0 0,-0.12 0,0 0,0.12 0,0 2.28,-0.24 0,0 0,0.12 0,0 0,-0.24 2.16,0 0,-0.24 0,-0.12 0,0.12 0,0 2.28,0 0,0 0,0 2.28,0.24 0,-0.24 0,0.12 0,2.16 6.72,0.48 0,0.12 0,0.12 0,-0.24 0,0.48 2.16,0 0,0.36 0,-0.24 0,0 0,-0.24 0,0 2.28,-0.12 0,0.12 0,0 0,0.12 0,1.2 4.44,0.72 0,0.12 0,0.12 9,1.44 2.28,1.2 0,-3.24 0,0 2.16,0.12 2.28,-0.24 6.72,-0.48 0,-0.24 2.28,0 0,-0.12 2.16,-0.36 0,0 2.28,-0.24 0,0.12 2.28,0.12 0,0.36 6.72,0.36 0,0 0,0.12 2.16,0.36 0,0 0,0.24 0,-0.12 2.28,0 0,-0.12 0,-0.12 2.28,-0.24 0,-0.12 0,0.24 2.16,0 0,0.12 0,-0.36 6.72,0 0,-0.12 0,-0.12 6.72,-0.48 24.72,0.36 2.16,-0.24 0,-0.36 6.72,1.08 0,0.96 0,0.12 4.56,0.12 6.72,0.48 4.44,-0.12 6.72,0.12 0,0 0,0.12 4.44,-0.24 0,0 4.56,0.24 6.72,0.12 2.16,0.24 22.44,-0.6 0,0.48 9,0 4.44,-0.84 2.28,0.24 0,0.12 6.72,0 0,0.96 2.16,0 2.28,0.36 11.16,-0.12 4.56,-0.12 13.44,-0.24 0,0 2.16,-0.24 4.56,-0.24 6.72,-0.24 8.88,0.12 0,-0.24 0,0 6.72,0 0,0 0,-0.12 2.28,-0.12 0,0.12 29.16,0.6 0,-0.12 17.88,0.24 0,0 2.28,0.36 2.16,0.12 0,0 0,0.24 2.28,0.12 2.28,1.68 4.44,0.48 0,0 0,0.48 0,2.88 0,1.08 0,0.6 2.28,0 0,1.44 2.16,0.48 0,1.2 2.28,0.36 0,-0.36 0,-0.12 0,0.6 2.28,0 0,-0.12 0,0.72 8.88,1.92 2.28,8.4 2.28,0.96 2.16,0.84 0,5.04 6.72,2.76 0,2.28 2.28,4.8 0,1.32 0,8.52 2.28,0.6 0,0 2.16,0.24 0,0.24 0,5.88 0,2.52 2.28,-0.72 0,2.88 0,0.6 6.72,-0.12 0,-0.12 0,0.24 0,-0.36 2.28,-1.32 0,0.12 2.16,10.44 4.56,99.6 6.72,5.4 2.16,1.56 0,-0.12 2.28,1.2 0,4.44 2.28,1.68 0,0.48 2.16,0 0,2.28 9,0.12 0,-0.24 2.28,-0.24 2.16,-0.24 2.28,-0.12 4.44,-0.36 2.28,-0.12 0,0 2.28,-0.12 2.16,-0.12 2.28,0.12 6.72,0.24 2.28,1.68 2.16,2.04 0,-0.48 2.28,-0.12 0,0.24 4.44,-1.08 0,-0.84 0,-0.24 0,-0.12 6.72,0 0,-0.24 4.56,-0.72 2.16,-0.24 2.28,0.84 0,0.12 9,0.84 2.16,-0.12 0,-0.12 2.28,0 11.16,-0.24 2.28,0.24 0,-0.6 2.16,-0.36 0,-0.24 2.28,0.12 0,-2.28 6.72,7.32 0,-3.36 0,-0.12 2.28,-0.24 0,2.16 0,0.96 2.16,0 0,0.96 0,-0.72 2.28,-1.44 0,0.24 0,-1.32 0,-0.12 0,-1.32 2.28,0.24 0,1.2 0,0.36 6.72,0.96 0,-0.12 2.16,0 0,-0.36 0,-0.24 0,0.12 0,0.12 2.28,-0.24 0,-6.36 2.28,-0.48 0,0.12 0,-0.6 2.16,-0.36 0,-0.12 6.72,0.12 0,-0.12 0,0.48 0,64.56 2.28,0 0,0.24 0,1.8 0,-1.08 2.28,0.48 0,0.65 2.16,-0.29 2.28,-1.08 0,0 0,-0.24 0,-0.12 6.73,0 0,-0.72"
       style="fill:none;stroke:#ed7d31;stroke-width:2.25;stroke-linecap:round;stroke-linejoin:round;stroke-miterlimit:10;stroke-opacity:1;stroke-dasharray:none"
       id="path4425"
       inkscape:connector-curvature="0" /><path
       d="m 111.14,195.48 2.26,0.24 2.28,0 0,-0.12 0,0 0,0 0,0 0,-0.23 0,0.35 2.16,0 0,0.12 0,0 2.28,0 4.44,0.24 0,0.24 0,0 4.44,-0.12 4.56,0.72 6.72,0.6 4.44,0.36 13.44,0.24 0,-0.24 0,0.24 0,-0.24 2.28,0.48 0,0 0,0.6 0,0 2.16,0 0,-0.12 0,0 0,0 0,-0.12 0,0.36 2.28,0 0,-0.12 0,0 0,0 6.72,0 0,0 0,0 0,-0.12 2.28,-0.12 0,0 0,0 0,0.12 2.16,-0.12 0,0.24 0,0.12 0,-0.12 0,0 2.28,0 0,0.12 0,-0.12 2.28,0 0,0.12 0,0.12 0,0.12 6.72,-0.12 0,0 0,0 0,-0.24 0,0.96 2.16,0 0,0.12 0,-0.24 0,0.12 0,0 2.28,0 0,-0.12 0,0.12 0,1.32 4.44,0.36 0,0 0,0.24 9,0.12 2.28,0.36 0,3.48 0,-0.36 2.16,-0.36 2.28,0.12 6.72,0.12 0,0.24 2.28,-0.12 0,0 2.16,0.48 0,0 2.28,0 0,-0.12 2.28,0 0,0.36 6.72,0.12 0,0.12 0,0 2.16,-0.12 0,0 0,0 0,-0.12 2.28,0 0,-0.12 0,-0.36 2.28,-0.36 0,0.12 0,-0.24 2.16,0 0,0 0,0 6.72,0 0,0.12 0,-0.12 0,0.12 6.72,0.24 24.72,0 2.16,0.12 0,-0.36 6.72,0 0,0.12 0,0 4.56,0 6.72,-0.12 4.44,-0.24 6.72,0 0,0.24 0,-0.12 4.44,-0.24 0,-0.12 4.56,0 6.72,-0.12 2.16,0 22.44,0.6 9,0.36 4.44,1.2 2.28,0.48 6.72,-0.12 0,1.92 2.16,0.36 2.28,0.12 11.16,0.36 4.56,0 13.44,0.24 0,-0.24 2.16,0.12 4.56,-0.12 6.72,0.24 8.88,0 0,0.24 0,0.12 6.72,-0.12 0,0.12 0,-0.12 2.28,0 0,0 29.16,-0.36 0,0.12 17.88,-0.72 0,0.12 2.28,0.12 2.16,-0.6 0,0.12 2.28,-0.12 2.28,0 4.44,0 0,0 0,-0.12 0,0 0,0.12 2.28,0 0,0.72 2.16,0 0,0.36 2.28,0.12 0,0.72 0,-0.12 0,0.12 2.28,0 0,0 0,0.12 8.88,0.48 2.28,0.48 2.28,2.04 2.16,0.6 0,0.36 6.72,0.6 0,0 2.28,0 0,-0.24 0,0.24 2.28,0.36 0,0 2.16,-0.12 0,0.12 0,0.6 2.28,0.72 0,0.12 6.72,0.6 0,0 0,0.36 2.28,1.32 0,-0.36 2.16,0 4.56,1.92 6.72,2.04 2.16,0 0,0.24 2.28,0.48 0,0.12 2.28,1.2 0,0.48 2.16,0.12 0,0 9,0.48 0,1.08 2.28,0 2.16,0.48 2.28,0.12 0,-0.12 4.44,0.12 2.28,0 0,0 2.28,-0.12 2.16,0.12 2.28,0 6.72,0.48 2.28,0.6 2.16,0 0,0.36 2.28,-0.12 0,0 4.44,1.08 0,0.72 0,0.72 0,-0.12 6.72,0 0,0 4.56,0.6 2.16,-0.24 2.28,0.12 0,2.16 9,0.12 2.16,0.12 0,0.24 2.28,0 11.16,0 2.28,0 0,0.12 2.16,0.12 0,0 2.28,0.24 0,2.52 6.72,-0.6 0,3.24 0,0.12 2.28,0 0,0.6 2.16,0 0,0 0,0.36 2.28,3.24 0,3.6 0,0.12 0,0.84 2.28,0 0,-0.12 6.72,0.24 0,0.24 2.16,0 0,0.12 0,0.12 2.28,0.12 0,5.16 2.28,0.36 0,0 0,0.36 2.16,0.84 0,0.12 6.72,0 0,0 0,-0.12 0,0 2.28,0 0,0.12 0,0.12 0,0.6 2.28,0.24 0,0 2.16,-0.48 2.28,1.08 0,-0.12 0,0.12 0,0.24 6.73,0 0,0.56"
       style="fill:none;stroke:#a5a5a5;stroke-width:2.25;stroke-linecap:round;stroke-linejoin:round;stroke-miterlimit:10;stroke-opacity:1;stroke-dasharray:none"
       id="path4427"
       inkscape:connector-curvature="0" /><path
       d="m 111.14,150.84 2.26,-0.12 2.28,0 0,0 0,0 0,0 0,-0.06 0,0.18 2.16,0 0,-0.12 2.28,0 4.44,0 0,0 4.44,0.12 4.56,0.48 6.72,0.12 4.44,0 13.44,-0.24 0,0.12 0,0.12 2.28,0.24 0,-0.12 0,0 0,0 2.16,0 0,-0.12 0,0 0,0 0,0 0,-0.12 2.28,0 0,0 0,0 0,0 6.72,0 0,0.12 0,0 0,0 2.28,-0.12 0,0 0,0 0,0 2.16,0 0,0 0,0 0,0 0,-0.12 2.28,0 0,0 0,0 2.28,0 0,-0.12 0,0 6.72,-0.24 0,0 0,0 0,-0.12 0,0.24 2.16,0 0,-0.12 0,0.48 0,0 2.28,0 0,0.12 0,0 0,0.12 0,0.12 4.44,0 0,0 0,-0.24 9,0.48 2.28,0.12 0,1.08 0,0.24 2.16,0.24 2.28,0.12 0,0.12 6.72,0.36 0,0 2.28,-0.12 0,0 2.16,0 0,0 2.28,-0.12 0,0.12 2.28,0 0,0 6.72,0 0,0 0,0 2.16,0 0,0 0,0 0,0 2.28,0 0,-0.12 0,0 2.28,-0.24 0,0 0,0.12 2.16,0 0,0.12 0,-0.12 6.72,0 0,0 0,0.12 6.72,0.12 24.72,0 2.16,0 0,0.36 6.72,0 0,0 0,0 4.56,0 6.72,0.12 4.44,0.12 6.72,-0.12 0,0 0,0.12 4.44,0 0,-0.12 4.56,0.12 6.72,-0.12 2.16,0.24 22.44,0.48 9,0 4.44,0.12 2.28,0.12 6.72,0 0,0 2.16,0 2.28,0.12 11.16,0.12 4.56,0.12 13.44,0 0,0.12 2.16,0 4.56,0.24 6.72,-0.12 8.88,-0.12 0,0 0,0 6.72,0.12 0,0 0,0 2.28,0 0,0.12 29.16,0.12 17.88,0.12 0,0 2.28,-0.12 2.16,-0.12 0,0 2.28,0 2.28,0.36 4.44,0 0,0 0,0.24 0,0 2.28,0 0,0 2.16,-0.12 0,0 2.28,0 0,-0.12 0,0.12 2.28,0 0,0 8.88,0 2.28,0 2.28,0.24 2.16,0.12 0,0.12 6.72,0.12 0,0 2.28,0.12 0,0.24 0,0 2.28,0 0,0 2.16,0.12 0,-0.12 2.28,0 0,0 6.72,0 0,0.12 0,0 0,0.12 2.28,-0.12 0,0.48 2.16,0.24 4.56,0 6.72,0.12 2.16,-0.12 0,0.24 2.28,0 0,0 2.28,0 0,0.36 2.16,0.12 0,0 9,0.24 0,0 2.28,-0.12 2.16,0 2.28,0 0,0.12 4.44,0.24 2.28,0 0,0 2.28,0 2.16,-0.12 2.28,0 6.72,0.12 2.28,-0.48 2.16,0.24 0,0 2.28,0 0,0 4.44,-0.12 0,0.36 0,0 6.72,0 0,0 4.56,0.6 2.16,0.12 2.28,0 0,0 9,0.12 2.16,0 2.28,-0.12 11.16,-0.12 2.28,-0.12 0,0.24 2.16,0 0,0 2.28,0 0,0 6.72,-0.12 0,0 0,0 2.28,0 0,0 0,0.12 2.16,0 0,0 0,0.36 2.28,0.36 0,0 0,0 0,0.48 2.28,0.12 0,0.12 6.72,0 0,0 2.16,0 0,0 0,0.12 2.28,0.12 0,1.2 2.28,0 0,0.12 0,0 2.16,0 6.72,0 0,0 0,0 0,0.12 2.28,0 0,0 0,1.56 2.28,0 0,0.24 2.16,0.12 2.28,0.09 0,0.03 0,-0.12 6.73,0 0,0"
       style="fill:none;stroke:#ffc000;stroke-width:2.25;stroke-linecap:round;stroke-linejoin:round;stroke-miterlimit:10;stroke-opacity:1;stroke-dasharray:none"
       id="path4429"
       inkscape:connector-curvature="0" /><g
       id="g4431"><g
         id="g4433"
         clip-path="url(#clipPath4435)"><text
           transform="matrix(1,0,0,-1,67.032,101.14)"
           id="text4439"><tspan
             style="font-size:20.04000092px;font-variant:normal;font-weight:normal;writing-mode:lr-tb;fill:#595959;fill-opacity:1;fill-rule:nonzero;stroke:none;font-family:Calibri;-inkscape-font-specification:Calibri"
             x="0 10.07998"
             y="0"
             sodipodi:role="line"
             id="tspan4441">0%</tspan></text>
</g></g><g
       id="g4443"><g
         id="g4445"
         clip-path="url(#clipPath4447)"><text
           transform="matrix(1,0,0,-1,56.904,163.13)"
           id="text4451"><tspan
             style="font-size:20.04000092px;font-variant:normal;font-weight:normal;writing-mode:lr-tb;fill:#595959;fill-opacity:1;fill-rule:nonzero;stroke:none;font-family:Calibri;-inkscape-font-specification:Calibri"
             x="0 10.08012 20.2404"
             y="0"
             sodipodi:role="line"
             id="tspan4453">10%</tspan></text>
</g></g><g
       id="g4455"><g
         id="g4457"
         clip-path="url(#clipPath4459)"><text
           transform="matrix(1,0,0,-1,56.904,225.12)"
           id="text4463"><tspan
             style="font-size:20.06399918px;font-variant:normal;font-weight:normal;writing-mode:lr-tb;fill:#595959;fill-opacity:1;fill-rule:nonzero;stroke:none;font-family:Calibri;-inkscape-font-specification:Calibri"
             x="0 10.072128 20.244576"
             y="0"
             sodipodi:role="line"
             id="tspan4465">20%</tspan></text>
</g></g><g
       id="g4467"><g
         id="g4469"
         clip-path="url(#clipPath4471)"><text
           transform="matrix(1,0,0,-1,56.904,287.09)"
           id="text4475"><tspan
             style="font-size:20.04000092px;font-variant:normal;font-weight:normal;writing-mode:lr-tb;fill:#595959;fill-opacity:1;fill-rule:nonzero;stroke:none;font-family:Calibri;-inkscape-font-specification:Calibri"
             x="0 10.08012 20.2404"
             y="0"
             sodipodi:role="line"
             id="tspan4477">30%</tspan></text>
</g></g><g
       id="g4479"><g
         id="g4481"
         clip-path="url(#clipPath4483)"><text
           transform="matrix(1,0,0,-1,56.904,349.08)"
           id="text4487"><tspan
             style="font-size:20.06399918px;font-variant:normal;font-weight:normal;writing-mode:lr-tb;fill:#595959;fill-opacity:1;fill-rule:nonzero;stroke:none;font-family:Calibri;-inkscape-font-specification:Calibri"
             x="0 10.072128 20.244576"
             y="0"
             sodipodi:role="line"
             id="tspan4489">40%</tspan></text>
</g></g><g
       id="g4491"><g
         id="g4493"
         clip-path="url(#clipPath4495)"><text
           transform="matrix(1,0,0,-1,56.904,411.05)"
           id="text4499"><tspan
             style="font-size:20.04000092px;font-variant:normal;font-weight:normal;writing-mode:lr-tb;fill:#595959;fill-opacity:1;fill-rule:nonzero;stroke:none;font-family:Calibri;-inkscape-font-specification:Calibri"
             x="0 10.08012 20.2404"
             y="0"
             sodipodi:role="line"
             id="tspan4501">50%</tspan></text>
</g></g><g
       id="g4503"><g
         id="g4505"
         clip-path="url(#clipPath4507)"><text
           transform="matrix(1,0,0,-1,56.904,473.04)"
           id="text4511"><tspan
             style="font-size:20.04000092px;font-variant:normal;font-weight:normal;writing-mode:lr-tb;fill:#595959;fill-opacity:1;fill-rule:nonzero;stroke:none;font-family:Calibri;-inkscape-font-specification:Calibri"
             x="0 10.08012 20.2404"
             y="0"
             sodipodi:role="line"
             id="tspan4513">60%</tspan></text>
</g></g><g
       id="g4515"><g
         id="g4517"
         clip-path="url(#clipPath4519)"><text
           transform="matrix(1,0,0,-1,56.904,535.01)"
           id="text4523"><tspan
             style="font-size:20.04000092px;font-variant:normal;font-weight:normal;writing-mode:lr-tb;fill:#595959;fill-opacity:1;fill-rule:nonzero;stroke:none;font-family:Calibri;-inkscape-font-specification:Calibri"
             x="0 10.08012 20.2404"
             y="0"
             sodipodi:role="line"
             id="tspan4525">70%</tspan></text>
</g></g><g
       id="g4527"><g
         id="g4529"
         clip-path="url(#clipPath4531)"><text
           transform="matrix(1,0,0,-1,87.216,75.12)"
           id="text4535"><tspan
             style="font-size:20.04000092px;font-variant:normal;font-weight:normal;writing-mode:lr-tb;fill:#595959;fill-opacity:1;fill-rule:nonzero;stroke:none;font-family:Calibri;-inkscape-font-specification:Calibri"
             x="0 10.08012 20.2404 26.372641 32.7654 43.2864"
             y="0"
             sodipodi:role="line"
             id="tspan4537">22-Jul</tspan></text>
</g></g><g
       id="g4539"><g
         id="g4541"
         clip-path="url(#clipPath4543)"><text
           transform="matrix(1,0,0,-1,151.66,75.12)"
           id="text4547"><tspan
             style="font-size:20.04000092px;font-variant:normal;font-weight:normal;writing-mode:lr-tb;fill:#595959;fill-opacity:1;fill-rule:nonzero;stroke:none;font-family:Calibri;-inkscape-font-specification:Calibri"
             x="0 10.08012 20.2404 26.372641 37.9758 48.496799"
             y="0"
             sodipodi:role="line"
             id="tspan4549">22-Aug</tspan></text>
</g></g><g
       id="g4551"><g
         id="g4553"
         clip-path="url(#clipPath4555)"><text
           transform="matrix(1,0,0,-1,222.02,75.12)"
           id="text4559"><tspan
             style="font-size:20.04000092px;font-variant:normal;font-weight:normal;writing-mode:lr-tb;fill:#595959;fill-opacity:1;fill-rule:nonzero;stroke:none;font-family:Calibri;-inkscape-font-specification:Calibri"
             x="0 10.08012 20.2404 26.372641 35.61108 45.450722"
             y="0"
             sodipodi:role="line"
             id="tspan4561">22-Sep</tspan></text>
</g></g><g
       id="g4563"><g
         id="g4565"
         clip-path="url(#clipPath4567)"><text
           transform="matrix(1,0,0,-1,289.85,75.12)"
           id="text4571"><tspan
             style="font-size:20.04000092px;font-variant:normal;font-weight:normal;writing-mode:lr-tb;fill:#595959;fill-opacity:1;fill-rule:nonzero;stroke:none;font-family:Calibri;-inkscape-font-specification:Calibri"
             x="0 10.08012 20.2404 26.372641 39.639118 48.116039"
             y="0"
             sodipodi:role="line"
             id="tspan4573">22-Oct</tspan></text>
</g></g><g
       id="g4575"><g
         id="g4577"
         clip-path="url(#clipPath4579)"><text
           transform="matrix(1,0,0,-1,357.24,75.12)"
           id="text4583"><tspan
             style="font-size:20.04000092px;font-variant:normal;font-weight:normal;writing-mode:lr-tb;fill:#595959;fill-opacity:1;fill-rule:nonzero;stroke:none;font-family:Calibri;-inkscape-font-specification:Calibri"
             x="0 10.08012 20.2404 26.372641 39.318481 49.7994"
             y="0"
             sodipodi:role="line"
             id="tspan4585">22-Nov</tspan></text>
</g></g><g
       id="g4587"><g
         id="g4589"
         clip-path="url(#clipPath4591)"><text
           transform="matrix(1,0,0,-1,425.35,75.12)"
           id="text4595"><tspan
             style="font-size:20.04000092px;font-variant:normal;font-weight:normal;writing-mode:lr-tb;fill:#595959;fill-opacity:1;fill-rule:nonzero;stroke:none;font-family:Calibri;-inkscape-font-specification:Calibri"
             x="0 10.08012 20.2404 26.372641 38.73732 48.576962"
             y="0"
             sodipodi:role="line"
             id="tspan4597">22-Dec</tspan></text>
</g></g><g
       id="g4599"><g
         id="g4601"
         clip-path="url(#clipPath4603)"><text
           transform="matrix(1,0,0,-1,496.92,75.12)"
           id="text4607"><tspan
             style="font-size:20.04000092px;font-variant:normal;font-weight:normal;writing-mode:lr-tb;fill:#595959;fill-opacity:1;fill-rule:nonzero;stroke:none;font-family:Calibri;-inkscape-font-specification:Calibri"
             x="0 10.08012 20.2404 26.372641 32.7654 42.364559"
             y="0"
             sodipodi:role="line"
             id="tspan4609">22-Jan</tspan></text>
</g></g><g
       id="g4611"><g
         id="g4613"
         clip-path="url(#clipPath4615)"><text
           transform="matrix(1,0,0,-1,564.77,75.12)"
           id="text4619"><tspan
             style="font-size:20.04000092px;font-variant:normal;font-weight:normal;writing-mode:lr-tb;fill:#595959;fill-opacity:1;fill-rule:nonzero;stroke:none;font-family:Calibri;-inkscape-font-specification:Calibri"
             x="0 10.08012 20.2404 26.372641 35.61108 45.450722"
             y="0"
             sodipodi:role="line"
             id="tspan4621">22-Feb</tspan></text>
</g></g><g
       id="g4623"><g
         id="g4625"
         clip-path="url(#clipPath4627)"><text
           transform="matrix(1,0,0,-1,625.49,75.12)"
           id="text4631"><tspan
             style="font-size:20.04000092px;font-variant:normal;font-weight:normal;writing-mode:lr-tb;fill:#595959;fill-opacity:1;fill-rule:nonzero;stroke:none;font-family:Calibri;-inkscape-font-specification:Calibri"
             x="0 10.08012 20.2404 26.372641 43.44672 53.045879"
             y="0"
             sodipodi:role="line"
             id="tspan4633">22-Mar</tspan></text>
</g></g><g
       id="g4635"><g
         id="g4637"
         clip-path="url(#clipPath4639)"><path
           d="m 50.4,63.406 682.09,0 0,494.59 -682.09,0 0,-494.59 z"
           style="fill:none;stroke:#d9d9d9;stroke-width:0.75;stroke-linecap:butt;stroke-linejoin:round;stroke-miterlimit:10;stroke-opacity:1;stroke-dasharray:none"
           id="path4643"
           inkscape:connector-curvature="0" /></g></g><path
       d="m 181.08,432.1 187.65,0 0,30.907 -187.65,0 0,-30.907 z"
       style="fill:#ffffff;fill-opacity:1;fill-rule:evenodd;stroke:none"
       id="path4645"
       inkscape:connector-curvature="0" /><g
       id="g4647"><g
         id="g4649"
         clip-path="url(#clipPath4651)"><text
           transform="matrix(1,0,0,-1,188.3,440.3)"
           id="text4655"><tspan
             style="font-size:20.04000092px;font-variant:normal;font-weight:normal;writing-mode:lr-tb;fill:#5b9bd5;fill-opacity:1;fill-rule:nonzero;stroke:none;font-family:Calibri;-inkscape-font-specification:Calibri"
             x="0 10.36068 19.959841 29.39868 39.378601 47.214241 51.603001 65.931602 70.440598 77.153999 87.675003 92.26416 102.42444 106.95348 121.18188 130.78104 137.49445 145.97136 156.55247 166.53239"
             y="0"
             sodipodi:role="line"
             id="tspan4657">Pages with 1 watcher</tspan></text>
</g></g><path
       d="m 209.4,232.26 236.52,0 0,30.907 -236.52,0 0,-30.907 z"
       style="fill:#ffffff;fill-opacity:1;fill-rule:evenodd;stroke:none"
       id="path4659"
       inkscape:connector-curvature="0" /><g
       id="g4661"><g
         id="g4663"
         clip-path="url(#clipPath4665)"><text
           transform="matrix(1,0,0,-1,216.62,240.41)"
           id="text4669"><tspan
             style="font-size:20.04000092px;font-variant:normal;font-weight:normal;writing-mode:lr-tb;fill:#ed7d31;fill-opacity:1;fill-rule:nonzero;stroke:none;font-family:Calibri;-inkscape-font-specification:Calibri"
             x="0 10.36068 19.959841 29.39868 39.378601 47.214241 51.603001 65.931602 70.440598 77.153999 87.675003 92.26416 102.42444 106.95348 121.18188 130.78104 137.49445 145.97136 156.55247 166.53239 173.52637"
             y="0"
             sodipodi:role="line"
             id="tspan4671">Pages with 2 watchers</tspan></text>
</g></g><path
       d="m 229.4,172.26 236.52,0 0,30.907 -236.52,0 0,-30.907 z"
       style="fill:#ffffff;fill-opacity:1;fill-rule:evenodd;stroke:none"
       id="path4673"
       inkscape:connector-curvature="0" /><g
       id="g4675"><g
         id="g4677"
         clip-path="url(#clipPath4679)"><text
           transform="matrix(1,0,0,-1,236.62,180.41)"
           id="text4683"><tspan
             style="font-size:20.04000092px;font-variant:normal;font-weight:normal;writing-mode:lr-tb;fill:#7f7f7f;fill-opacity:1;fill-rule:nonzero;stroke:none;font-family:Calibri;-inkscape-font-specification:Calibri"
             x="0 10.36068 19.959841 29.458799 39.438721 47.274361 51.683159 66.011757 70.540802 77.254204 87.815277 92.344322"
             y="0"
             sodipodi:role="line"
             id="tspan4685">Pages with 3</tspan></text>
</g></g><g
       id="g4687"><g
         id="g4689"
         clip-path="url(#clipPath4691)"><text
           transform="matrix(1,0,0,-1,339.12,180.41)"
           id="text4695"><tspan
             style="font-size:20.04000092px;font-variant:normal;font-weight:normal;writing-mode:lr-tb;fill:#7f7f7f;fill-opacity:1;fill-rule:nonzero;stroke:none;font-family:Calibri;-inkscape-font-specification:Calibri"
             x="0"
             y="0"
             id="tspan4697">-</tspan></text>
</g></g><g
       id="g4699"><g
         id="g4701"
         clip-path="url(#clipPath4703)"><text
           transform="matrix(1,0,0,-1,345.24,180.41)"
           id="text4707"><tspan
             style="font-size:20.04000092px;font-variant:normal;font-weight:normal;writing-mode:lr-tb;fill:#7f7f7f;fill-opacity:1;fill-rule:nonzero;stroke:none;font-family:Calibri;-inkscape-font-specification:Calibri"
             x="0 10.16028 14.529 28.857599 38.45676 45.170158 53.647079 64.168083 74.148003 81.14196"
             y="0"
             sodipodi:role="line"
             id="tspan4709">5 watchers</tspan></text>
</g></g><path
       d="m 242.73,120.59 236.52,0 0,30.907 -236.52,0 0,-30.907 z"
       style="fill:#ffffff;fill-opacity:1;fill-rule:evenodd;stroke:none"
       id="path4711"
       inkscape:connector-curvature="0" /><g
       id="g4713"><g
         id="g4715"
         clip-path="url(#clipPath4717)"><text
           transform="matrix(1,0,0,-1,249.96,128.71)"
           id="text4721"><tspan
             style="font-size:20.04000092px;font-variant:normal;font-weight:normal;writing-mode:lr-tb;fill:#eeb500;fill-opacity:1;fill-rule:nonzero;stroke:none;font-family:Calibri;-inkscape-font-specification:Calibri"
             x="0 10.36068 19.959841 29.39868 39.378601 47.214241 51.603001 65.931602 70.440598 77.153999 87.675003 92.26416 102.42444 112.40436 116.87328 131.20187 140.80104 147.51443 155.99136 166.51236 176.49228 183.48624"
             y="0"
             sodipodi:role="line"
             id="tspan4723">Pages with 6+ watchers</tspan></text>
</g></g><path
       d="m 493.15,501.33 0,-28.5 -0.5,0 0,28.5 0.5,0 z m 4.75,-27.5 -5,-10 -5,10 10,0 z"
       style="fill:#5b9bd5;fill-opacity:1;fill-rule:nonzero;stroke:none"
       id="path4725"
       inkscape:connector-curvature="0" /><path
       d="m 472.9,489.67 195.84,0 0,61.666 -195.84,0 0,-61.666 z"
       style="fill:#ffffff;fill-opacity:1;fill-rule:evenodd;stroke:none"
       id="path4727"
       inkscape:connector-curvature="0" /><path
       d="m 472.9,489.67 195.84,0 0,61.666 -195.84,0 0,-61.666 z"
       style="fill:none;stroke:#5b9bd5;stroke-width:0.75;stroke-linecap:butt;stroke-linejoin:round;stroke-miterlimit:10;stroke-opacity:1;stroke-dasharray:none"
       id="path4729"
       inkscape:connector-curvature="0" /><g
       id="g4731"><g
         id="g4733"
         clip-path="url(#clipPath4735)"><text
           transform="matrix(1,0,0,-1,493.73,525.82)"
           id="text4739"><tspan
             style="font-size:20.04000092px;font-variant:normal;font-weight:normal;writing-mode:lr-tb;fill:#000000;fill-opacity:1;fill-rule:nonzero;stroke:none;font-family:Calibri;-inkscape-font-specification:Calibri"
             x="0 17.8356 27.434759 34.148159 42.705238 53.226238 57.594959 66.79332 77.374443 86.813278 96.312241 106.29216 114.1278 120.8412 125.3502 135.91129 146.43228 154.26791"
             y="0"
             sodipodi:role="line"
             id="tspan4741">Watch Suggestions </tspan></text>
</g></g><g
       id="g4743"><g
         id="g4745"
         clip-path="url(#clipPath4747)"><text
           transform="matrix(1,0,0,-1,484.97,501.46)"
           id="text4751"><tspan
             style="font-size:20.04000092px;font-variant:normal;font-weight:normal;writing-mode:lr-tb;fill:#000000;fill-opacity:1;fill-rule:nonzero;stroke:none;font-family:Calibri;-inkscape-font-specification:Calibri"
             x="0 5.0500798 15.57108 23.406719 30.120119 39.71928 44.32848 48.837479 58.817402"
             y="0"
             sodipodi:role="line"
             id="tspan4753">Installed</tspan></text>
</g></g><g
       id="g4755"><g
         id="g4757"
         clip-path="url(#clipPath4759)"><text
           transform="matrix(1,0,0,-1,556.75,501.46)"
           id="text4763"><tspan
             style="font-size:20.04000092px;font-variant:normal;font-weight:normal;writing-mode:lr-tb;fill:#000000;fill-opacity:1;fill-rule:nonzero;stroke:none;font-family:Calibri;-inkscape-font-specification:Calibri"
             x="0 10.19998"
             y="0"
             sodipodi:role="line"
             id="tspan4765">10</tspan></text>
</g></g><g
       id="g4767"><g
         id="g4769"
         clip-path="url(#clipPath4771)"><text
           transform="matrix(1,0,0,-1,577.15,501.46)"
           id="text4775"><tspan
             style="font-size:20.04000092px;font-variant:normal;font-weight:normal;writing-mode:lr-tb;fill:#000000;fill-opacity:1;fill-rule:nonzero;stroke:none;font-family:Calibri;-inkscape-font-specification:Calibri"
             x="0"
             y="0"
             id="tspan4777">-</tspan></text>
</g></g><g
       id="g4779"><g
         id="g4781"
         clip-path="url(#clipPath4783)"><text
           transform="matrix(1,0,0,-1,583.27,501.46)"
           id="text4787"><tspan
             style="font-size:20.04000092px;font-variant:normal;font-weight:normal;writing-mode:lr-tb;fill:#000000;fill-opacity:1;fill-rule:nonzero;stroke:none;font-family:Calibri;-inkscape-font-specification:Calibri"
             x="0 6.3927598 15.99192"
             y="0"
             sodipodi:role="line"
             id="tspan4789">Jan</tspan></text>
</g></g><g
       id="g4791"><g
         id="g4793"
         clip-path="url(#clipPath4795)"><text
           transform="matrix(1,0,0,-1,609.79,501.46)"
           id="text4799"><tspan
             style="font-size:20.04000092px;font-variant:normal;font-weight:normal;writing-mode:lr-tb;fill:#000000;fill-opacity:1;fill-rule:nonzero;stroke:none;font-family:Calibri;-inkscape-font-specification:Calibri"
             x="0"
             y="0"
             id="tspan4801">-</tspan></text>
</g></g><g
       id="g4803"><g
         id="g4805"
         clip-path="url(#clipPath4807)"><text
           transform="matrix(1,0,0,-1,615.91,501.46)"
           id="text4811"><tspan
             style="font-size:20.04000092px;font-variant:normal;font-weight:normal;writing-mode:lr-tb;fill:#000000;fill-opacity:1;fill-rule:nonzero;stroke:none;font-family:Calibri;-inkscape-font-specification:Calibri"
             x="0 10.19998 20.39996 30.599939"
             y="0"
             sodipodi:role="line"
             id="tspan4813">2015</tspan></text>
</g></g></g></svg>