<?xml version="1.0" encoding="UTF-8" standalone="no"?>
<!-- Created with Inkscape (http://www.inkscape.org/) -->

<svg
   xmlns:dc="http://purl.org/dc/elements/1.1/"
   xmlns:cc="http://creativecommons.org/ns#"
   xmlns:rdf="http://www.w3.org/1999/02/22-rdf-syntax-ns#"
   xmlns:svg="http://www.w3.org/2000/svg"
   xmlns="http://www.w3.org/2000/svg"
   xmlns:sodipodi="http://sodipodi.sourceforge.net/DTD/sodipodi-0.dtd"
   xmlns:inkscape="http://www.inkscape.org/namespaces/inkscape"
   id="svg2985"
   version="1.1"
   inkscape:version="0.48.5 r10040"
   width="853.09375"
   height="618.7146"
   xml:space="preserve"
   sodipodi:docname="pie charts.pdf"><metadata
     id="metadata2991"><rdf:RDF><cc:Work
         rdf:about=""><dc:format>image/svg+xml</dc:format><dc:type
           rdf:resource="http://purl.org/dc/dcmitype/StillImage" /><dc:title></dc:title></cc:Work></rdf:RDF></metadata><defs
     id="defs2989"><clipPath
       clipPathUnits="userSpaceOnUse"
       id="clipPath2999"><path
         d="m 50.4,54 691.2,0 0,504 -691.2,0 0,-504 z"
         clip-rule="evenodd"
         id="path3001"
         inkscape:connector-curvature="0" /></clipPath><clipPath
       clipPathUnits="userSpaceOnUse"
       id="clipPath3023"><path
         d="m 50.4,63.48 682.08,0 0,494.52 -682.08,0 0,-494.52 z"
         clip-rule="evenodd"
         id="path3025"
         inkscape:connector-curvature="0" /></clipPath><clipPath
       clipPathUnits="userSpaceOnUse"
       id="clipPath3035"><path
         d="m 50.4,63.48 682.08,0 0,494.52 -682.08,0 0,-494.52 z"
         clip-rule="evenodd"
         id="path3037"
         inkscape:connector-curvature="0" /></clipPath><clipPath
       clipPathUnits="userSpaceOnUse"
       id="clipPath3047"><path
         d="m 50.4,63.48 682.08,0 0,494.52 -682.08,0 0,-494.52 z"
         clip-rule="evenodd"
         id="path3049"
         inkscape:connector-curvature="0" /></clipPath><clipPath
       clipPathUnits="userSpaceOnUse"
       id="clipPath3059"><path
         d="m 50.4,63.48 682.08,0 0,494.52 -682.08,0 0,-494.52 z"
         clip-rule="evenodd"
         id="path3061"
         inkscape:connector-curvature="0" /></clipPath><clipPath
       clipPathUnits="userSpaceOnUse"
       id="clipPath3071"><path
         d="m 50.4,63.48 682.08,0 0,494.52 -682.08,0 0,-494.52 z"
         clip-rule="evenodd"
         id="path3073"
         inkscape:connector-curvature="0" /></clipPath><clipPath
       clipPathUnits="userSpaceOnUse"
       id="clipPath3083"><path
         d="m 50.4,63.48 682.08,0 0,494.52 -682.08,0 0,-494.52 z"
         clip-rule="evenodd"
         id="path3085"
         inkscape:connector-curvature="0" /></clipPath><clipPath
       clipPathUnits="userSpaceOnUse"
       id="clipPath3095"><path
         d="m 50.4,63.48 682.08,0 0,494.52 -682.08,0 0,-494.52 z"
         clip-rule="evenodd"
         id="path3097"
         inkscape:connector-curvature="0" /></clipPath><clipPath
       clipPathUnits="userSpaceOnUse"
       id="clipPath3107"><path
         d="m 50.4,63.48 682.08,0 0,494.52 -682.08,0 0,-494.52 z"
         clip-rule="evenodd"
         id="path3109"
         inkscape:connector-curvature="0" /></clipPath><clipPath
       clipPathUnits="userSpaceOnUse"
       id="clipPath3119"><path
         d="m 50.4,63.48 682.08,0 0,494.52 -682.08,0 0,-494.52 z"
         clip-rule="evenodd"
         id="path3121"
         inkscape:connector-curvature="0" /></clipPath><clipPath
       clipPathUnits="userSpaceOnUse"
       id="clipPath3131"><path
         d="m 50.4,63.48 682.08,0 0,494.52 -682.08,0 0,-494.52 z"
         clip-rule="evenodd"
         id="path3133"
         inkscape:connector-curvature="0" /></clipPath><clipPath
       clipPathUnits="userSpaceOnUse"
       id="clipPath3143"><path
         d="m 50.4,63.48 682.08,0 0,494.52 -682.08,0 0,-494.52 z"
         clip-rule="evenodd"
         id="path3145"
         inkscape:connector-curvature="0" /></clipPath><clipPath
       clipPathUnits="userSpaceOnUse"
       id="clipPath3155"><path
         d="m 50.4,63.48 682.08,0 0,494.52 -682.08,0 0,-494.52 z"
         clip-rule="evenodd"
         id="path3157"
         inkscape:connector-curvature="0" /></clipPath><clipPath
       clipPathUnits="userSpaceOnUse"
       id="clipPath3167"><path
         d="m 50.4,63.48 682.08,0 0,494.52 -682.08,0 0,-494.52 z"
         clip-rule="evenodd"
         id="path3169"
         inkscape:connector-curvature="0" /></clipPath><clipPath
       clipPathUnits="userSpaceOnUse"
       id="clipPath3179"><path
         d="m 50.4,63.48 682.08,0 0,494.52 -682.08,0 0,-494.52 z"
         clip-rule="evenodd"
         id="path3181"
         inkscape:connector-curvature="0" /></clipPath><clipPath
       clipPathUnits="userSpaceOnUse"
       id="clipPath3191"><path
         d="m 50.4,63.48 682.08,0 0,494.52 -682.08,0 0,-494.52 z"
         clip-rule="evenodd"
         id="path3193"
         inkscape:connector-curvature="0" /></clipPath><clipPath
       clipPathUnits="userSpaceOnUse"
       id="clipPath3203"><path
         d="m 50.4,63.48 682.08,0 0,494.52 -682.08,0 0,-494.52 z"
         clip-rule="evenodd"
         id="path3205"
         inkscape:connector-curvature="0" /></clipPath><clipPath
       clipPathUnits="userSpaceOnUse"
       id="clipPath3215"><path
         d="m 50.4,63.48 682.08,0 0,494.52 -682.08,0 0,-494.52 z"
         clip-rule="evenodd"
         id="path3217"
         inkscape:connector-curvature="0" /></clipPath><clipPath
       clipPathUnits="userSpaceOnUse"
       id="clipPath3229"><path
         d="m 50.4,63.48 682.08,0 0,494.52 -682.08,0 0,-494.52 z"
         clip-rule="evenodd"
         id="path3231"
         inkscape:connector-curvature="0" /></clipPath><clipPath
       clipPathUnits="userSpaceOnUse"
       id="clipPath3243"><path
         d="m 50.4,63.48 682.08,0 0,494.52 -682.08,0 0,-494.52 z"
         clip-rule="evenodd"
         id="path3245"
         inkscape:connector-curvature="0" /></clipPath><clipPath
       clipPathUnits="userSpaceOnUse"
       id="clipPath3257"><path
         d="m 50.4,63.48 682.08,0 0,494.52 -682.08,0 0,-494.52 z"
         clip-rule="evenodd"
         id="path3259"
         inkscape:connector-curvature="0" /></clipPath><clipPath
       clipPathUnits="userSpaceOnUse"
       id="clipPath3271"><path
         d="m 50.4,63.48 682.08,0 0,494.52 -682.08,0 0,-494.52 z"
         clip-rule="evenodd"
         id="path3273"
         inkscape:connector-curvature="0" /></clipPath><clipPath
       clipPathUnits="userSpaceOnUse"
       id="clipPath3283"><path
         d="m 50.4,54 691.2,0 0,504 -691.2,0 0,-504 z"
         clip-rule="evenodd"
         id="path3285"
         inkscape:connector-curvature="0" /></clipPath></defs><sodipodi:namedview
     pagecolor="#ffffff"
     bordercolor="#666666"
     borderopacity="1"
     objecttolerance="10"
     gridtolerance="10"
     guidetolerance="10"
     inkscape:pageopacity="0"
     inkscape:pageshadow="2"
     inkscape:window-width="1366"
     inkscape:window-height="716"
     id="namedview2987"
     showgrid="false"
     fit-margin-top="0"
     fit-margin-left="0"
     fit-margin-right="0"
     fit-margin-bottom="0"
     inkscape:zoom="0.76095916"
     inkscape:cx="432"
     inkscape:cy="329.27721"
     inkscape:window-x="-8"
     inkscape:window-y="-8"
     inkscape:window-maximized="1"
     inkscape:current-layer="g2993" /><g
     id="g2993"
     inkscape:groupmode="layer"
     inkscape:label="pie charts"
     transform="matrix(1.25,0,0,-1.25,-63,697.5)"><g
       id="g2995"><g
         id="g2997"
         clip-path="url(#clipPath2999)"><path
           d="m 50.4,63.406 682.09,0 0,494.59 -682.09,0 0,-494.59 z"
           style="fill:#ffffff;fill-opacity:1;fill-rule:evenodd;stroke:none"
           id="path3003"
           inkscape:connector-curvature="0" /></g></g><path
       d="m 110.02,200.04 611.47,0 m -611.47,56.76 611.47,0 m -611.47,56.76 611.47,0 m -611.47,56.88 611.47,0 m -611.47,56.76 611.47,0 m -611.47,56.76 611.47,0 m -611.47,56.83 611.47,0"
       style="fill:none;stroke:#d9d9d9;stroke-width:0.75;stroke-linecap:butt;stroke-linejoin:round;stroke-miterlimit:10;stroke-opacity:1;stroke-dasharray:none"
       id="path3005"
       inkscape:connector-curvature="0" /><path
       d="m 110.02,143.19 611.47,0"
       style="fill:none;stroke:#d9d9d9;stroke-width:0.75;stroke-linecap:butt;stroke-linejoin:round;stroke-miterlimit:10;stroke-opacity:1;stroke-dasharray:none"
       id="path3007"
       inkscape:connector-curvature="0" /><path
       d="m 110.02,143.19 0,-6.35 m 69.38,6.35 0,-6.35 m 69.48,6.35 0,-6.35 m 67.2,6.35 0,-6.35 m 69.48,6.35 0,-6.35 m 67.2,6.35 0,-6.35 m 69.36,6.35 0,-6.35 m 69.48,6.35 0,-6.35 m 62.7,6.35 0,-6.35"
       style="fill:none;stroke:#d9d9d9;stroke-width:0.75;stroke-linecap:butt;stroke-linejoin:round;stroke-miterlimit:10;stroke-opacity:1;stroke-dasharray:none"
       id="path3009"
       inkscape:connector-curvature="0" /><path
       d="m 111.14,491.76 2.26,0.44 2.28,0 0,-0.08 0,-0.12 0,0 0,0.24 0,-0.24 0,0 0,-0.24 2.16,0 0,-0.12 0,0 2.28,0 4.44,0.12 0,-0.36 0,0.12 4.44,0 4.56,-1.68 6.72,-0.6 4.44,-0.72 13.44,0 0,0 0,-0.24 2.28,-0.24 0,-0.12 0,-0.48 0,0 2.16,0 0,-0.6 0,-0.12 0,0.12 0,-0.36 0,0 0,0.12 2.28,0.24 0,0 0,0.12 0,0 0,-0.12 6.72,0 0,0 0,0.12 0,-0.12 0,0 2.28,0.36 0,0.12 0,-0.12 0,0 0,0.12 2.16,0.12 0,0 0,0 0,0 0,0 2.28,0.12 0,-0.12 0,0.12 2.28,-0.24 0,0.24 0,-0.12 0,-0.12 0,-2.04 6.72,-0.24 0,-0.12 0,0 0,0.36 0,-1.44 2.16,0 0,-0.24 0,0.12 0,-0.12 0,0.12 2.28,0.12 0,-0.24 0,0 0,-0.24 0,-2.4 4.44,-0.96 0,-0.12 0,-0.24 9,-1.8 2.28,-1.68 0,-1.08 0,0.12 2.16,0 2.28,0 0,-0.12 6.72,0.12 0,-0.12 2.28,0.12 0,0.24 2.16,-0.12 0,0.12 2.28,0.12 0,-0.12 2.28,0 0,-0.72 6.72,-0.36 0,-0.12 0,-0.12 2.16,-0.24 0,0 0,-0.12 0,0.12 2.28,0 0,0.24 0,0.72 2.28,0.6 0,0 0,-0.24 2.16,0.12 0,-0.12 0,0.24 6.72,0 0,0.12 6.72,0 24.72,-0.24 2.16,0.12 0,0.24 6.72,-0.96 0,-1.08 0,0 4.56,-0.12 6.72,-0.36 4.44,0.24 6.72,-0.12 0,-0.24 0,-0.12 4.44,0.6 0,0.12 4.56,-0.36 6.72,0.12 2.16,-0.48 22.44,-0.36 0,-0.36 9,-0.48 4.44,-0.36 2.28,-0.72 0,-0.12 6.72,0.12 0,-2.64 2.16,-0.24 2.28,-0.72 11.16,-0.36 4.56,0.12 13.44,0 0,0 2.16,0.12 4.56,0.24 6.72,0 8.88,0 0,0 0,-0.12 6.72,0 0,0 0,0.24 2.28,0 0,-0.12 29.16,-0.36 17.88,0.24 0,-0.12 2.28,-0.24 2.16,0.36 0,0 0,-0.24 2.28,0 2.28,-1.8 4.44,-0.36 0,-0.12 0,-0.36 0,-2.88 0,-0.96 0,-0.72 2.28,0.12 0,-2.04 2.16,-0.36 0,-1.44 2.28,-0.36 0,-0.24 0,0 0,-0.6 2.28,0 0,0.12 0,-0.72 8.88,-2.16 2.28,-8.16 2.28,-2.88 2.16,-1.44 0,-5.16 6.72,-3.24 0,-2.16 2.28,-4.44 0,-1.08 0,-8.16 2.28,-0.84 0,0.12 2.16,-0.24 0,-0.36 0,-6 0,-2.28 2.28,0 0,-2.64 0,-0.6 6.72,-0.36 0,-0.24 2.28,-0.12 0,-0.24 2.16,-9.84 4.56,-93 6.72,-6.84 2.16,-1.44 0,-0.24 2.28,-1.56 0,-4.2 2.28,-2.64 0,-1.08 2.16,-0.24 0,-2.04 9,-0.84 0,-0.6 2.28,0.12 2.16,-0.24 2.28,0.12 4.44,-0.12 2.28,0.24 0,0 2.28,0.12 2.16,0.12 2.28,-0.12 6.72,-0.72 2.28,-1.68 2.16,-2.16 0,0.12 2.28,0.24 0,-0.12 4.44,0.12 0,-0.24 0,-0.36 0,0 6.72,0 0,0.36 4.56,-0.48 2.16,0.24 2.28,-0.84 0,-2.04 9,-0.96 2.16,0 2.28,-0.12 11.16,0.36 2.28,0 0,0.12 2.16,0.36 0,0.12 2.28,-0.36 0,-0.24 6.72,-6.12 0,0.24 0,0 2.28,0.24 0,-2.52 0,-0.96 2.16,0 0,-0.84 0,-0.12 2.28,-1.92 0,-0.24 0,-2.16 0,0 2.28,-0.36 0,-1.08 0,-0.36 6.72,-1.08 0,-0.12 2.16,0 0,0.24 0,0.12 0,-0.12 0,-0.12 2.28,0 0,-0.12 2.28,0.12 0,-0.12 0,0.12 2.16,-0.36 6.72,-0.12 0,0.12 0,-0.36 0,-59.28 2.28,0 0,-0.36 0,-1.68 0,-1.08 2.28,-0.72 0,-0.7 2.16,0.46 2.28,0.12 0,0 0,0.12 0,0 6.73,0 0,0"
       style="fill:none;stroke:#5b9bd5;stroke-width:2.25;stroke-linecap:round;stroke-linejoin:round;stroke-miterlimit:10;stroke-opacity:1;stroke-dasharray:none"
       id="path3011"
       inkscape:connector-curvature="0" /><path
       d="m 111.14,241.32 2.26,-0.47 2.28,0 0,0.11 0,0.12 0,0 0,-0.12 0,0.36 0,-0.12 2.16,0 0,0 2.28,0 4.44,-0.24 0,0 4.44,0 4.56,0.48 6.72,0.12 4.44,0.36 13.44,0 0,0 2.28,-0.24 0,0.12 0,0.12 0,0.12 2.16,0 0,0.48 0,0.12 0,0 0,0.36 0,0.12 0,-0.48 2.28,0 0,-0.12 0,0 0,0 0,0.12 6.72,0 0,-0.12 0,0 0,0.12 0,0 2.28,-0.24 0,0 0,0.12 0,0 0,-0.12 2.16,-0.12 0,-0.12 0,-0.24 0,0.12 0,0 2.28,0 0,0 0,0 2.28,0.24 0,-0.24 0,0.12 0,2.04 6.72,0.48 0,0.12 0,0 0,-0.12 0,0.48 2.16,0 0,0.24 0,-0.24 0,0 0,-0.12 0,-0.12 2.28,0 0,0 0,0 0,0.12 0,1.08 4.44,0.72 0,0.12 0,0.12 9,1.32 2.28,1.08 0,-3 0,0 2.16,0.12 2.28,-0.24 6.72,-0.48 0,-0.12 2.28,0 0,-0.12 2.16,-0.36 0,0 2.28,-0.12 0,0 2.28,0.12 0,0.36 6.72,0.24 0,0 0,0.12 2.16,0.36 0,0 0,0.24 0,-0.12 2.28,0 0,0 0,-0.24 2.28,-0.24 0,0 0,0.24 2.16,-0.12 0,0.12 0,-0.24 6.72,0 0,-0.12 0,-0.24 6.72,-0.36 24.72,0.24 2.16,-0.12 0,-0.24 6.72,0.84 0,0.96 0,0 4.56,0.24 6.72,0.36 4.44,0 6.72,0.12 0,-0.12 0,0.12 4.44,-0.24 0,0 4.56,0.36 6.72,0 2.16,0.24 22.44,-0.6 0,0.48 9,0 4.44,-0.84 2.28,0.36 0,0.12 6.72,-0.12 0,0.96 2.16,0 2.28,0.24 11.16,0 4.56,-0.24 13.44,-0.12 0,0 2.16,-0.24 4.56,-0.24 6.72,-0.12 8.88,0 0,-0.12 0,-0.12 6.72,0 0,0 0,-0.12 2.28,0 0,0.12 29.16,0.48 0,-0.12 17.88,0.24 0,0 2.28,0.36 2.16,0.12 0,0 0,0.24 2.28,0.12 2.28,1.44 4.44,0.36 0,0.12 0,0.36 0,2.64 0,0.96 0,0.72 2.28,-0.12 0,1.44 2.16,0.36 0,1.08 2.28,0.36 0,-0.36 0,-0.12 0,0.6 2.28,0 0,-0.12 0,0.6 8.88,1.8 2.28,7.8 2.28,0.84 2.16,0.72 0,4.56 6.72,2.64 0,2.04 2.28,4.44 0,1.2 0,7.8 2.28,0.6 0,-0.12 2.16,0.24 0,0.24 0,5.4 0,2.28 2.28,-0.72 0,2.64 0,0.72 6.72,-0.24 0,-0.12 0,0.24 0,-0.36 2.28,-1.08 0,0.12 2.16,9.6 4.56,91.2 6.72,4.92 2.16,1.44 0,-0.12 2.28,1.08 0,4.2 2.28,1.44 0,0.48 2.16,0 0,2.04 9,0.12 0,-0.24 2.28,-0.24 2.16,-0.12 2.28,-0.12 4.44,-0.36 2.28,-0.12 0,0 2.28,-0.12 2.16,-0.12 2.28,0.12 6.72,0.24 2.28,1.56 2.16,1.8 0,-0.36 2.28,-0.12 0,0.12 4.44,-0.84 0,-0.84 0,-0.24 0,-0.12 6.72,0 0,-0.12 4.56,-0.72 2.16,-0.24 2.28,0.84 0,0.12 9,0.72 2.16,-0.12 0,-0.12 2.28,0 11.16,-0.12 2.28,0.12 0,-0.48 2.16,-0.36 0,-0.24 2.28,0.12 0,-2.16 6.72,6.84 0,-3.12 0,-0.12 2.28,-0.24 0,1.92 0,0.96 2.16,0 0,0.84 0,-0.72 2.28,-1.32 0,0.24 0,-1.2 0,0 0,-1.32 2.28,0.24 0,1.2 0,0.24 6.72,0.84 0,0 2.16,0 0,-0.36 0,-0.24 0,0.12 0,0.12 2.28,-0.24 0,-5.76 2.28,-0.6 0,0.12 0,-0.48 2.16,-0.36 0,-0.12 6.72,0.12 0,0 0,0.36 0,59.16 2.28,0 0,0.24 0,1.56 0,-0.84 2.28,0.36 0,0.6 2.16,-0.24 2.28,-1.08 0,0.12 0,-0.24 0,-0.12 6.73,0 0,-0.6"
       style="fill:none;stroke:#ed7d31;stroke-width:2.25;stroke-linecap:round;stroke-linejoin:round;stroke-miterlimit:10;stroke-opacity:1;stroke-dasharray:none"
       id="path3013"
       inkscape:connector-curvature="0" /><path
       d="m 111.14,224.28 2.26,0.12 2.28,0 0,0 0,0 0,0 0,-0.12 0,-0.11 0,0.23 2.16,0 0,0.24 0,0 2.28,0 4.44,0.12 0,0.36 0,-0.12 4.44,-0.12 4.56,0.72 6.72,0.48 4.44,0.36 13.44,0.24 0,-0.12 0,0.12 0,-0.12 2.28,0.36 0,0 0,0.48 0,0 2.16,0 0,0 0,0 0,-0.12 0,0 0,0.36 2.28,-0.12 0,0 0,0 0,0 6.72,0 0,-0.12 0,0 0,0 2.28,-0.12 0,0 0,-0.12 0,0.12 2.16,0 0,0.12 0,0.12 0,0 0,0 2.28,0 0,0 0,0 2.28,0 0,0 0,0.12 0,0.12 6.72,0 0,-0.12 0,0 0,-0.12 0,0.84 2.16,0 0,0.12 0,-0.24 0,0.12 0,0 2.28,0 0,-0.12 0,0.12 0,1.2 4.44,0.36 0,0 0,0.24 9,0 2.28,0.48 0,3.12 0,-0.36 2.16,-0.36 2.28,0.12 6.72,0.12 0,0.24 2.28,-0.12 0,0 2.16,0.48 0,-0.12 2.28,0.12 0,-0.12 2.28,0 0,0.36 6.72,0.12 0,0 0,0 2.16,0 0,-0.12 0,0 0,0 2.28,0 0,-0.12 0,-0.48 2.28,-0.24 0,0.12 0,-0.12 2.16,-0.12 0,0 0,0 6.72,0 0,0.12 0,-0.12 0,0.12 6.72,0.24 24.72,0 2.16,0 0,-0.24 6.72,0.12 0,0 0,0 4.56,0 6.72,-0.12 4.44,-0.24 6.72,0 0,0.24 0,-0.12 4.44,-0.24 0,0 4.56,-0.12 6.72,0 2.16,0 22.44,0.48 9,0.36 4.44,1.08 2.28,0.36 6.72,0 0,1.8 2.16,0.24 2.28,0.12 11.16,0.36 4.56,-0.12 13.44,0.24 0,-0.12 2.16,0.12 4.56,-0.24 6.72,0.36 8.88,0 0,0.24 0,0.12 6.72,-0.12 0,0 0,0 2.28,-0.12 0,0 29.16,-0.24 0,0.12 17.88,-0.72 0,0.24 2.28,0 2.16,-0.48 0,0 2.28,0 2.28,-0.12 4.44,0 0,0 0,0 0,0 0,0.12 2.28,0 0,0.6 2.16,0 0,0.36 2.28,0.12 0,0.6 0,-0.12 0,0.12 2.28,0 0,0 0,0.12 8.88,0.48 2.28,0.36 2.28,1.92 2.16,0.48 0,0.36 6.72,0.6 0,0 2.28,0 0,-0.24 0,0.24 2.28,0.36 0,0 2.16,-0.12 0,0.12 0,0.48 2.28,0.72 0,0 6.72,0.6 0,0.12 0,0.24 2.28,1.2 0,-0.24 2.16,-0.12 4.56,1.8 6.72,1.92 2.16,0 0,0.12 2.28,0.48 0,0.12 2.28,1.08 0,0.48 2.16,0.12 0,-0.12 9,0.6 0,0.84 2.28,0.12 2.16,0.36 2.28,0.12 0,-0.12 4.44,0.12 2.28,0 0,0 2.28,-0.12 2.16,0.12 2.28,0 6.72,0.36 2.28,0.6 2.16,0.12 0,0.24 2.28,0 0,-0.12 4.44,0.96 0,0.72 0,0.6 0,0 6.72,0 0,-0.12 4.56,0.6 2.16,-0.24 2.28,0.12 0,2.04 9,0.12 2.16,0.12 0,0.12 2.28,0 11.16,0.12 2.28,-0.12 0,0.24 2.16,0 0,0 2.28,0.24 0,2.4 6.72,-0.6 0,2.88 0,0.12 2.28,0.12 0,0.48 2.16,0 0,0 0,0.36 2.28,3 0,3.24 0,0.12 0,0.72 2.28,0 0,-0.12 6.72,0.36 0,0.12 2.16,0 0,0.12 0,0 2.28,0.24 0,4.68 2.28,0.36 0,0 0,0.36 2.16,0.72 0,0.12 6.72,0 0,0 0,-0.12 0,0 2.28,0 0,0.12 0,0.12 0,0.6 2.28,0.24 0,-0.12 2.16,-0.36 2.28,0.96 0,-0.12 0,0.12 0,0.24 6.73,0 0,0.49"
       style="fill:none;stroke:#a5a5a5;stroke-width:2.25;stroke-linecap:round;stroke-linejoin:round;stroke-miterlimit:10;stroke-opacity:1;stroke-dasharray:none"
       id="path3015"
       inkscape:connector-curvature="0" /><path
       d="m 111.14,183.36 2.26,-0.12 2.28,0 0,0 0,0 0,0 0,-0.05 0,0.17 2.16,0 0,-0.12 2.28,0 4.44,0 0,0 4.44,0.12 4.56,0.48 6.72,0.12 4.44,0 13.44,-0.24 0,0.12 0,0.12 2.28,0.12 0,0 0,-0.12 0,0 2.16,0 0,0 0,0 0,0 0,0 0,-0.12 2.28,0 0,0 0,0 0,0 6.72,0 0,0.12 0,0 0,-0.12 2.28,0 0,0 0,0 0,0 2.16,-0.12 0,0 0,0 0,0 0,0 2.28,0 0,0 0,0 2.28,0 0,-0.12 0,0 6.72,-0.24 0,0 0,0 0,-0.12 0,0.24 2.16,0 0,-0.12 0,0.48 0,-0.12 2.28,0 0,0.12 0,0 0,0.12 0,0.12 4.44,0 0,0 0,-0.12 9,0.36 2.28,0.24 0,0.84 0,0.24 2.16,0.24 2.28,0.12 0,0.12 6.72,0.24 0,0 2.28,0 0,0 2.16,-0.12 0,0 2.28,0 0,0.12 2.28,0 0,-0.12 6.72,0 0,0.12 0,0 2.16,0 0,0 0,0 0,-0.12 2.28,0 0,0 0,0 2.28,-0.24 0,0 0,0.12 2.16,0 0,0.12 0,-0.12 6.72,0 0,0 0,0.12 6.72,0.12 24.72,0 2.16,0 0,0.36 6.72,0 0,0 0,0 4.56,0 6.72,0.12 4.44,0 6.72,0 0,0 0,0.12 4.44,-0.12 0,0 4.56,0 6.72,0 2.16,0.12 22.44,0.48 9,0 4.44,0.12 2.28,0.12 6.72,-0.12 0,0 2.16,0 2.28,0.12 11.16,0.24 4.56,0 13.44,0 0,0.12 2.16,0 4.56,0.24 6.72,-0.12 8.88,-0.12 0,0 0,0 6.72,0.12 0,0 0,0 2.28,0 0,0.12 29.16,0.12 17.88,0.12 0,0 2.28,-0.12 2.16,0 0,-0.12 2.28,0 2.28,0.36 4.44,0 0,0 0,0.24 0,0 2.28,0 0,-0.12 2.16,0 0,0 2.28,0 0,-0.12 0,0.12 2.28,0 0,0 8.88,0 2.28,0 2.28,0.12 2.16,0.12 0,0.24 6.72,0.12 0,0 2.28,0 0,0.24 0,0 2.28,0 0,0 2.16,0.12 0,0 2.28,0 0,-0.12 6.72,0 0,0.12 0,0 0,0.12 2.28,0 0,0.36 2.16,0.24 4.56,0 6.72,0 2.16,0 0,0.24 2.28,0 0,-0.12 2.28,0 0,0.36 2.16,0.12 0,0 9,0.24 0,0 2.28,-0.12 2.16,0 2.28,0 0,0.12 4.44,0.24 2.28,0 0,0 2.28,-0.12 2.16,0 2.28,0 6.72,0.12 2.28,-0.36 2.16,0.12 0,0 2.28,0 0,0 4.44,-0.12 0,0.36 0,0 6.72,0 0,0 4.56,0.48 2.16,0.24 2.28,-0.12 0,0 9,0.12 2.16,0 2.28,0 11.16,-0.24 2.28,-0.12 0,0.24 2.16,0 0,0 2.28,0 0,0.12 6.72,-0.12 0,-0.12 0,0 2.28,0 0,0 0,0.12 2.16,0 0,0 0,0.36 2.28,0.36 0,0 0,0 0,0.48 2.28,0.12 0,0.12 6.72,0 0,0 2.16,0 0,-0.12 0,0.12 2.28,0.12 0,1.2 2.28,-0.12 0,0.12 0,0 2.16,0 6.72,0 0,0.12 0,-0.12 0,0.12 2.28,0 0,0 0,1.44 2.28,0 0,0.24 2.16,0.12 2.28,0.06 0,-0.06 0,0 6.73,0 0,0"
       style="fill:none;stroke:#ffc000;stroke-width:2.25;stroke-linecap:round;stroke-linejoin:round;stroke-miterlimit:10;stroke-opacity:1;stroke-dasharray:none"
       id="path3017"
       inkscape:connector-curvature="0" /><g
       id="g3019"><g
         id="g3021"
         clip-path="url(#clipPath3023)"><text
           transform="matrix(1,0,0,-1,67.032,137.33)"
           id="text3027"><tspan
             style="font-size:20.04000092px;font-variant:normal;font-weight:normal;writing-mode:lr-tb;fill:#595959;fill-opacity:1;fill-rule:nonzero;stroke:none;font-family:Calibri;-inkscape-font-specification:Calibri"
             x="0 10.07998"
             y="0"
             sodipodi:role="line"
             id="tspan3029">0%</tspan></text>
</g></g><g
       id="g3031"><g
         id="g3033"
         clip-path="url(#clipPath3035)"><text
           transform="matrix(1,0,0,-1,56.904,194.14)"
           id="text3039"><tspan
             style="font-size:20.04000092px;font-variant:normal;font-weight:normal;writing-mode:lr-tb;fill:#595959;fill-opacity:1;fill-rule:nonzero;stroke:none;font-family:Calibri;-inkscape-font-specification:Calibri"
             x="0 10.08012 20.2404"
             y="0"
             sodipodi:role="line"
             id="tspan3041">10%</tspan></text>
</g></g><g
       id="g3043"><g
         id="g3045"
         clip-path="url(#clipPath3047)"><text
           transform="matrix(1,0,0,-1,56.904,250.94)"
           id="text3051"><tspan
             style="font-size:20.04000092px;font-variant:normal;font-weight:normal;writing-mode:lr-tb;fill:#595959;fill-opacity:1;fill-rule:nonzero;stroke:none;font-family:Calibri;-inkscape-font-specification:Calibri"
             x="0 10.08012 20.2404"
             y="0"
             sodipodi:role="line"
             id="tspan3053">20%</tspan></text>
</g></g><g
       id="g3055"><g
         id="g3057"
         clip-path="url(#clipPath3059)"><text
           transform="matrix(1,0,0,-1,56.904,307.78)"
           id="text3063"><tspan
             style="font-size:20.06399918px;font-variant:normal;font-weight:normal;writing-mode:lr-tb;fill:#595959;fill-opacity:1;fill-rule:nonzero;stroke:none;font-family:Calibri;-inkscape-font-specification:Calibri"
             x="0 10.072128 20.244576"
             y="0"
             sodipodi:role="line"
             id="tspan3065">30%</tspan></text>
</g></g><g
       id="g3067"><g
         id="g3069"
         clip-path="url(#clipPath3071)"><text
           transform="matrix(1,0,0,-1,56.904,364.58)"
           id="text3075"><tspan
             style="font-size:20.04000092px;font-variant:normal;font-weight:normal;writing-mode:lr-tb;fill:#595959;fill-opacity:1;fill-rule:nonzero;stroke:none;font-family:Calibri;-inkscape-font-specification:Calibri"
             x="0 10.08012 20.2404"
             y="0"
             sodipodi:role="line"
             id="tspan3077">40%</tspan></text>
</g></g><g
       id="g3079"><g
         id="g3081"
         clip-path="url(#clipPath3083)"><text
           transform="matrix(1,0,0,-1,56.904,421.39)"
           id="text3087"><tspan
             style="font-size:20.04000092px;font-variant:normal;font-weight:normal;writing-mode:lr-tb;fill:#595959;fill-opacity:1;fill-rule:nonzero;stroke:none;font-family:Calibri;-inkscape-font-specification:Calibri"
             x="0 10.08012 20.2404"
             y="0"
             sodipodi:role="line"
             id="tspan3089">50%</tspan></text>
</g></g><g
       id="g3091"><g
         id="g3093"
         clip-path="url(#clipPath3095)"><text
           transform="matrix(1,0,0,-1,56.904,478.2)"
           id="text3099"><tspan
             style="font-size:20.04000092px;font-variant:normal;font-weight:normal;writing-mode:lr-tb;fill:#595959;fill-opacity:1;fill-rule:nonzero;stroke:none;font-family:Calibri;-inkscape-font-specification:Calibri"
             x="0 10.08012 20.2404"
             y="0"
             sodipodi:role="line"
             id="tspan3101">60%</tspan></text>
</g></g><g
       id="g3103"><g
         id="g3105"
         clip-path="url(#clipPath3107)"><text
           transform="matrix(1,0,0,-1,56.904,535.01)"
           id="text3111"><tspan
             style="font-size:20.04000092px;font-variant:normal;font-weight:normal;writing-mode:lr-tb;fill:#595959;fill-opacity:1;fill-rule:nonzero;stroke:none;font-family:Calibri;-inkscape-font-specification:Calibri"
             x="0 10.08012 20.2404"
             y="0"
             sodipodi:role="line"
             id="tspan3113">70%</tspan></text>
</g></g><g
       id="g3115"><g
         id="g3117"
         clip-path="url(#clipPath3119)"><text
           transform="matrix(1,0,0,-1,87.216,111.31)"
           id="text3123"><tspan
             style="font-size:20.04000092px;font-variant:normal;font-weight:normal;writing-mode:lr-tb;fill:#595959;fill-opacity:1;fill-rule:nonzero;stroke:none;font-family:Calibri;-inkscape-font-specification:Calibri"
             x="0 6.3927598 16.913759 21.522961 27.655199 37.675201"
             y="0"
             sodipodi:role="line"
             id="tspan3125">Jul-14</tspan></text>
</g></g><g
       id="g3127"><g
         id="g3129"
         clip-path="url(#clipPath3131)"><text
           transform="matrix(1,0,0,-1,151.66,111.31)"
           id="text3135"><tspan
             style="font-size:20.04000092px;font-variant:normal;font-weight:normal;writing-mode:lr-tb;fill:#595959;fill-opacity:1;fill-rule:nonzero;stroke:none;font-family:Calibri;-inkscape-font-specification:Calibri"
             x="0 11.523 22.044001 31.48284 37.655159 47.735279"
             y="0"
             sodipodi:role="line"
             id="tspan3137">Aug-14</tspan></text>
</g></g><g
       id="g3139"><g
         id="g3141"
         clip-path="url(#clipPath3143)"><text
           transform="matrix(1,0,0,-1,222.02,111.31)"
           id="text3147"><tspan
             style="font-size:20.04000092px;font-variant:normal;font-weight:normal;writing-mode:lr-tb;fill:#595959;fill-opacity:1;fill-rule:nonzero;stroke:none;font-family:Calibri;-inkscape-font-specification:Calibri"
             x="0 9.1983604 19.17828 29.69928 35.751362 45.91164"
             y="0"
             sodipodi:role="line"
             id="tspan3149">Sep-14</tspan></text>
</g></g><g
       id="g3151"><g
         id="g3153"
         clip-path="url(#clipPath3155)"><text
           transform="matrix(1,0,0,-1,289.85,111.31)"
           id="text3159"><tspan
             style="font-size:20.04000092px;font-variant:normal;font-weight:normal;writing-mode:lr-tb;fill:#595959;fill-opacity:1;fill-rule:nonzero;stroke:none;font-family:Calibri;-inkscape-font-specification:Calibri"
             x="0 13.20636 21.683281 28.396681 34.528919 44.689201"
             y="0"
             sodipodi:role="line"
             id="tspan3161">Oct-14</tspan></text>
</g></g><g
       id="g3163"><g
         id="g3165"
         clip-path="url(#clipPath3167)"><text
           transform="matrix(1,0,0,-1,357.24,111.31)"
           id="text3171"><tspan
             style="font-size:20.04000092px;font-variant:normal;font-weight:normal;writing-mode:lr-tb;fill:#595959;fill-opacity:1;fill-rule:nonzero;stroke:none;font-family:Calibri;-inkscape-font-specification:Calibri"
             x="0 12.94584 23.406719 32.504879 38.637119 48.697201"
             y="0"
             sodipodi:role="line"
             id="tspan3173">Nov-14</tspan></text>
</g></g><g
       id="g3175"><g
         id="g3177"
         clip-path="url(#clipPath3179)"><text
           transform="matrix(1,0,0,-1,425.35,111.31)"
           id="text3183"><tspan
             style="font-size:20.04000092px;font-variant:normal;font-weight:normal;writing-mode:lr-tb;fill:#595959;fill-opacity:1;fill-rule:nonzero;stroke:none;font-family:Calibri;-inkscape-font-specification:Calibri"
             x="0 12.3246 22.204321 30.68124 36.81348 46.973759"
             y="0"
             sodipodi:role="line"
             id="tspan3185">Dec-14</tspan></text>
</g></g><g
       id="g3187"><g
         id="g3189"
         clip-path="url(#clipPath3191)"><text
           transform="matrix(1,0,0,-1,496.92,111.31)"
           id="text3195"><tspan
             style="font-size:20.04000092px;font-variant:normal;font-weight:normal;writing-mode:lr-tb;fill:#595959;fill-opacity:1;fill-rule:nonzero;stroke:none;font-family:Calibri;-inkscape-font-specification:Calibri"
             x="0 6.3927598 15.99192 26.51292 32.645161 42.725281"
             y="0"
             sodipodi:role="line"
             id="tspan3197">Jan-15</tspan></text>
</g></g><g
       id="g3199"><g
         id="g3201"
         clip-path="url(#clipPath3203)"><text
           transform="matrix(1,0,0,-1,564.77,111.31)"
           id="text3207"><tspan
             style="font-size:20.04000092px;font-variant:normal;font-weight:normal;writing-mode:lr-tb;fill:#595959;fill-opacity:1;fill-rule:nonzero;stroke:none;font-family:Calibri;-inkscape-font-specification:Calibri"
             x="0 9.1983604 19.17828 29.69928 35.751362 45.91164"
             y="0"
             sodipodi:role="line"
             id="tspan3209">Feb-15</tspan></text>
</g></g><g
       id="g3211"><g
         id="g3213"
         clip-path="url(#clipPath3215)"><text
           transform="matrix(1,0,0,-1,625.49,111.31)"
           id="text3219"><tspan
             style="font-size:20.04000092px;font-variant:normal;font-weight:normal;writing-mode:lr-tb;fill:#595959;fill-opacity:1;fill-rule:nonzero;stroke:none;font-family:Calibri;-inkscape-font-specification:Calibri"
             x="0 17.134199 26.63316 33.627121 39.819481 49.899601"
             y="0"
             sodipodi:role="line"
             id="tspan3221">Mar-15</tspan></text>
</g></g><path
       d="m 139.38,84.491 19.2,0"
       style="fill:none;stroke:#5b9bd5;stroke-width:2.25;stroke-linecap:round;stroke-linejoin:round;stroke-miterlimit:10;stroke-opacity:1;stroke-dasharray:none"
       id="path3223"
       inkscape:connector-curvature="0" /><g
       id="g3225"><g
         id="g3227"
         clip-path="url(#clipPath3229)"><text
           transform="matrix(1,0,0,-1,160.63,78.624)"
           id="text3233"><tspan
             style="font-size:20.06399918px;font-variant:normal;font-weight:normal;writing-mode:lr-tb;fill:#595959;fill-opacity:1;fill-rule:nonzero;stroke:none;font-family:Calibri;-inkscape-font-specification:Calibri"
             x="0 10.072128 14.606592 28.952353 38.563007 45.284447 53.631073 64.164673 74.156548"
             y="0"
             sodipodi:role="line"
             id="tspan3235">1 watcher</tspan></text>
</g></g><path
       d="m 262.73,84.491 19.2,0"
       style="fill:none;stroke:#ed7d31;stroke-width:2.25;stroke-linecap:round;stroke-linejoin:round;stroke-miterlimit:10;stroke-opacity:1;stroke-dasharray:none"
       id="path3237"
       inkscape:connector-curvature="0" /><g
       id="g3239"><g
         id="g3241"
         clip-path="url(#clipPath3243)"><text
           transform="matrix(1,0,0,-1,283.99,78.624)"
           id="text3247"><tspan
             style="font-size:20.06399918px;font-variant:normal;font-weight:normal;writing-mode:lr-tb;fill:#595959;fill-opacity:1;fill-rule:nonzero;stroke:none;font-family:Calibri;-inkscape-font-specification:Calibri"
             x="0 10.072128 14.606592 28.952353 38.563007 45.284447 53.631073 64.164673 74.156548"
             y="0"
             sodipodi:role="line"
             id="tspan3249">2 watcher</tspan></text>
</g></g><path
       d="m 386.08,84.491 19.2,0"
       style="fill:none;stroke:#a5a5a5;stroke-width:2.25;stroke-linecap:round;stroke-linejoin:round;stroke-miterlimit:10;stroke-opacity:1;stroke-dasharray:none"
       id="path3251"
       inkscape:connector-curvature="0" /><g
       id="g3253"><g
         id="g3255"
         clip-path="url(#clipPath3257)"><text
           transform="matrix(1,0,0,-1,407.38,78.624)"
           id="text3261"><tspan
             style="font-size:20.06399918px;font-variant:normal;font-weight:normal;writing-mode:lr-tb;fill:#595959;fill-opacity:1;fill-rule:nonzero;stroke:none;font-family:Calibri;-inkscape-font-specification:Calibri"
             x="0 10.072128 14.606592 20.746176 25.28064 35.392895 39.927361 54.273121 63.883778 70.605217 78.951843 89.485443 99.47731"
             y="0"
             sodipodi:role="line"
             id="tspan3263">3 - 5 watcher</tspan></text>
</g></g><path
       d="m 534.73,84.491 19.2,0"
       style="fill:none;stroke:#ffc000;stroke-width:2.25;stroke-linecap:round;stroke-linejoin:round;stroke-miterlimit:10;stroke-opacity:1;stroke-dasharray:none"
       id="path3265"
       inkscape:connector-curvature="0" /><g
       id="g3267"><g
         id="g3269"
         clip-path="url(#clipPath3271)"><text
           transform="matrix(1,0,0,-1,556.03,78.624)"
           id="text3275"><tspan
             style="font-size:20.06399918px;font-variant:normal;font-weight:normal;writing-mode:lr-tb;fill:#595959;fill-opacity:1;fill-rule:nonzero;stroke:none;font-family:Calibri;-inkscape-font-specification:Calibri"
             x="0 10.072128 20.063999 24.598463 38.863968 48.474625 55.196064 63.582817 74.116417 84.108292"
             y="0"
             sodipodi:role="line"
             id="tspan3277">6+ watcher</tspan></text>
</g></g><g
       id="g3279"><g
         id="g3281"
         clip-path="url(#clipPath3283)"><path
           d="m 50.4,63.406 682.09,0 0,494.59 -682.09,0 0,-494.59 z"
           style="fill:none;stroke:#d9d9d9;stroke-width:0.75;stroke-linecap:butt;stroke-linejoin:round;stroke-miterlimit:10;stroke-opacity:1;stroke-dasharray:none"
           id="path3287"
           inkscape:connector-curvature="0" /></g></g></g></svg>